<svg id="Capa_1" data-name="Capa 1" xmlns="http://www.w3.org/2000/svg" viewBox="0 0 18 18"><defs><style>.cls-1{fill:#231f20;}.cls-2{fill:#fff;}</style></defs><title>ISOTIPO</title><rect class="cls-1" width="18" height="18"/><path class="cls-2" d="M7.26,13.77l.08.09.1-.09s0-.08-.09-.13A.21.21,0,0,0,7.26,13.77Z"/><path class="cls-2" d="M7.47,13.75c0,.06.08.1.08.14h0l.09-.08s-.05-.08,0-.12S7.52,13.71,7.47,13.75Z"/><path class="cls-2" d="M2.36,13.79a0,0,0,0,0,0-.05h0v.13l.08,0S2.41,13.8,2.36,13.79Z"/><path class="cls-2" d="M8.89,8.28a1.28,1.28,0,0,1-.39.25l0,0h0c-.46.16-.53.29-.54.43s.12.17.26.27h0s0,0,0,0a3.06,3.06,0,0,1,.27.2,3.81,3.81,0,0,1,.42.44L9,9.72h0l.26-.25,0,0,0,0,0,0c.17-.14.52-.33.51-.45s-.08-.26-.54-.43A1.23,1.23,0,0,1,8.89,8.28ZM8,8.89s0,0,0,0S8,8.89,8,8.89Zm0,0s0,0,0,0S8,8.91,8,8.9Zm.21.15s0,0,0,0S8.2,9,8.21,9.05Zm0,.1a.1.1,0,0,0,0-.06l.05,0S8.26,9.12,8.21,9.15Zm.23-.53s0,0,0,0S8.43,8.61,8.43,8.62Zm0,.53s0,0,0,0S8.41,9.16,8.41,9.15Zm0-.44s0,0,0,0S8.46,8.7,8.45,8.71ZM8.62,9s0,0,0,0S8.61,9,8.62,9Zm0-.28a0,0,0,0,1,0-.06S8.68,8.74,8.66,8.76Zm.06-.21a.07.07,0,0,1-.07,0l0,0,0,0S8.71,8.53,8.72,8.54ZM8.81,9.7l0,0,0,0,0,0Zm0-.06,0,0,0,0,0,0Zm0-.37s0,0,0,0S8.82,9.27,8.82,9.27Zm0,.23s0,0,0,0S8.85,9.49,8.85,9.5Zm0-.5s0,0-.06,0,.05,0,0,0,0,0,.06,0Zm.44.06s0,0,0,0S9.28,9,9.28,9.06ZM9,9.5s0,0,0,0S9,9.51,9,9.5Zm.06-.28s0,0,0,0S9.09,9.21,9.08,9.22ZM9,9,9,9s0,.06.06.08S9,9.09,9,9Zm.09,0s0,0,0,0,0,0,0,0S9.09,9,9.07,9Zm0-.19c.05.09-.1,0,0,0Zm0-.12s0,0,0,0S9.11,8.7,9.1,8.69Zm.18.61,0,0,0,0,0,0Zm0-.27s0-.1,0-.09S9.33,9,9.28,9Zm.45-.23s0,0,0,0S9.72,8.8,9.73,8.79Zm0,.23s0,0,0,0S9.75,9,9.75,9Zm-.07-.17s0,0,0,0S9.7,8.85,9.68,8.86Zm-.07-.07s-.05.06-.07.06S9.59,8.77,9.61,8.79ZM9.52,9a0,0,0,0,1,0,0S9.53,9,9.52,9Zm0-.14s0,0,0,0S9.51,8.85,9.51,8.86Zm0,.35s0,0,.06,0,0,0-.05,0S9.54,9.24,9.48,9.21Z"/><path class="cls-2" d="M15.65,4.12s0,0,0,.07V4.11H14.58s0,0,0,.07-.08-.05,0-.08h-.18l0,0a.07.07,0,0,1-.12,0l0,0h-.15l0,0a.07.07,0,0,1-.11.06s0-.06,0-.08H14l0,0s0,.09-.08.08a.07.07,0,0,1,0-.1h-.1s0,0,0,0-.11.08-.17,0l0,0h-.1l0,0c-.07.08-.15.05-.15,0h-.1l0,0-.1,0s0-.08,0,0v0h-.08l0,0s0,0,0,0-.11,0-.12,0h-.1v0l-.09.08s0-.07-.07-.1h-.07v0a.35.35,0,0,1-.11.08s-.07-.07-.07-.1l-.1.1s0,.08.07.12,0,.06-.07.09.07.08.07.12l-.09.08s-.11,0-.11-.09-.08.06-.09.13,0,.06.06.08-.08.08-.12,0,0-.08,0-.12a.78.78,0,0,1-.07-.17.11.11,0,0,1,.07,0l-.07-.12c.06-.07.11-.07.17,0a.18.18,0,0,0,0,.18s.1-.08.15-.07l-.09-.1c.07-.08.12-.15,0-.23h-.08a.16.16,0,0,1,0,.06s-.06,0-.08-.06H12a.11.11,0,0,1-.05.11.47.47,0,0,1,.09.12L12,4.43s.05.06,0,.06a.12.12,0,0,1,.07.07s-.06.06-.09.06l-.06-.06c.07-.07.1-.15,0-.23s0-.06.07-.1,0-.07-.07-.12h-.05s0,.06-.07.09l-.09-.09H11.6l-.09.09s0-.06-.06-.09h-.07c-.09.07-.08.14,0,.21s-.07.07-.1.07l-.07-.07a.33.33,0,0,0,.09-.11l-.08-.09h0c-.09,0-.08.13,0,.2s-.1.06-.07.1S11,4.33,11,4.3a.31.31,0,0,0,.09-.11L11,4.12h-.06s0,0-.07.07l-.06-.07h-.09l-.07.06-.06-.06H10.5a.24.24,0,0,1-.07.08s0,0,0,0,0,0,0,0,0,.06-.06.08l-.06-.06a.13.13,0,0,0,0-.19h-.1a.09.09,0,0,1,0,0l0,0H10l0,0,0,0H9.81l-.05,0v0H9.6l0,0,0,0H9a.07.07,0,0,0,0,0s0,0,0,0l0,0H8.73l0,0,0,0H8.29l0,0,0,0H2.31V5.67l0,0h0V7.44h0s0-.07.08,0,0,0,0,0,0,0-.07,0V9.37h0v1.08l0,0h0v1.74l0,0,0,0,0,0,0,0v.14a.06.06,0,0,1,.08,0,.07.07,0,0,1-.08.07v.09s.05,0,.08.07a.09.09,0,0,1-.08.06v.09h0c.07.05,0,.1,0,.15V13s.06,0,.08.07A.17.17,0,0,1,2.5,13s-.09-.1-.07-.14.12-.07.17,0a.36.36,0,0,1-.08.12s0,.07.08.11a.31.31,0,0,0-.09.1l.09.1a.26.26,0,0,1-.08.12s0,.07.07.1,0,.11-.08.12a.29.29,0,0,1,.1.09s.05,0,.07,0,.06,0,.09.08-.07,0-.1.07l-.09-.08s0,.06-.08.09a.07.07,0,0,0,0,0h.79s0-.09-.07-.08.08-.07.11-.11-.06-.08-.08-.11,0-.07.09-.1,0,0,.08.11,0,.07-.09.1a.45.45,0,0,1,.06.12s-.06.06-.09.06v0h.4l0-.06c.05,0,0-.06.08-.09s0-.09-.05-.14.09,0,.13,0-.08,0-.05.09,0,.07.05.11l0,.06H3.9v0s0-.09.08-.09,0-.11-.05-.16.11,0,.16,0a.15.15,0,0,1-.08.11s.06.08.06.13l0,0h.12l0,0a.32.32,0,0,0,.09-.1s0,0,.08.11l0,0h.09a0,0,0,0,1,0,0c.05-.06.1-.05.14,0l0,0h.08c.06,0,0-.07.09-.1s-.1-.14,0-.19l.08.09c-.11.06-.09.13,0,.21h.07l.08-.07s0,0,.06.07H5a.13.13,0,0,1,.06-.06s0-.09-.05-.14.05-.06.08-.09,0,.07.08.11a.26.26,0,0,0-.08.11l.06.06h.08l.06-.05s-.06-.09-.06-.13,0-.09.08-.09-.07-.08-.06-.12,0-.06.08-.09a.25.25,0,0,0-.06-.13.09.09,0,0,1,.17,0s0,.07-.09.1a.32.32,0,0,1,.08.11c-.07.07-.11.14,0,.22s0,.06-.08.09,0,0,0,.07H7l-.05-.06a.31.31,0,0,0,.09-.1l-.09-.1s-.09.08-.14.05l-.07-.08.09-.08c.06,0,0,.06.1.09l.12-.1c0,.07.08.06.1.12s-.16.13,0,.21a.13.13,0,0,1-.06,0h.14l0,0s0-.07.07-.1a.27.27,0,0,1-.08-.14c.05,0,0,0,.08-.07s0-.08,0-.12.13,0,.08-.09,0,.07.09.1,0,.07-.09.1.07.05.1.12a.31.31,0,0,0,.09-.1c.05,0,.1.12.15.12l.08-.11-.07-.08a.66.66,0,0,1,.09-.13.33.33,0,0,0,.08.12.34.34,0,0,1-.09.1l.1.12c-.05,0,0,0-.1.09s.06.08.09.13a.38.38,0,0,0,.08-.09c0-.08,0-.08-.05-.14l.1-.09-.09-.1a.13.13,0,0,1,.11-.08c.06.06.06.12,0,.17s0,.08.07.12a.27.27,0,0,0-.07.1.9.9,0,0,0,.06.1H8l.09-.07s0-.08-.06-.13a.33.33,0,0,0,.09-.1s-.07-.09-.06-.13.07-.05.1,0,0,.11,0,.17,0,.07.08.11,0,.07-.09.1l.06.09h.07l.07-.06s-.06-.08-.08-.11.07-.06.1-.11l.1.12s0-.06.08-.09a.15.15,0,0,0,0-.12.17.17,0,0,0,.08-.12s0,0,0,0,.05,0,.07.08a.29.29,0,0,0-.07.13s.06.06.05.09,0,.06-.08.09a.15.15,0,0,0,0,.07h.14l0,0c-.05,0,0-.08-.08-.11s0-.07.09-.1-.08-.11,0-.16.08.08.11.1l-.06.06s0,.07.08.11,0,.06-.08.09a.09.09,0,0,0,0,.05H10a.19.19,0,0,1,0-.08s.08,0,.05-.07.06.06.09.08l-.05.07h.18l0-.05c0-.05.05,0,.1,0a.08.08,0,0,1,0,.09h.18a.06.06,0,0,1,0,0s0,0,.06,0a.06.06,0,0,1,0,.08h.14s0-.08.06-.13-.08-.1,0-.15.08,0,.12,0-.07.07-.07.1.05.09,0,.14h.09v0c.06-.07.11,0,.13,0h.09c.06-.07.1,0,.11,0h.14s0,0,.08,0v0h2.78s0,0,0,0h1.49v-.05h0l0-.05s0,0,0,0h0V11.64l-.05-.06s0,0,.05,0V11l0,0h0V4.61l-.1,0a.09.09,0,0,0,0,0c0-.06.08,0,.12,0V4.2s-.05,0-.08,0,0-.08,0,0S15.61,4.16,15.65,4.12ZM2.32,6s0,0,0,0S2.32,6,2.32,6Zm4.48,7.8.06.06s-.06,0-.09.06,0,0,0-.06Zm8.76-7.45s.07,0,0,0l0,0S15.57,6.32,15.57,6.32Zm0,.88s0,0,0,0S15.6,7.19,15.61,7.2Zm0-.22s0,0,0,0S15.57,7,15.57,7Zm0-.42s0,0,0,0S15.6,6.56,15.59,6.56Zm.06,2,0,0s0,0,0,0S15.64,8.53,15.65,8.58Zm0-1.15s0,0,0,0S15.59,7.42,15.61,7.44Zm-.06.41s0,0,0,0S15.55,7.85,15.55,7.85Zm0,.24s0,0,0,0S15.58,8.08,15.58,8.09Zm0,.42s0,0,0,0S15.56,8.52,15.56,8.51Zm0,.43s0,0,0,0S15.57,8.94,15.57,8.94Zm0-.65s0,0,0,0S15.56,8.3,15.56,8.29Zm0-.68s0,0,0,0S15.54,7.62,15.55,7.62Zm0,1.59s0,0-.07,0S15.57,9.19,15.59,9.21Zm-.21-4.14a.06.06,0,0,1,.05-.1s0,0,0,.07Zm.07.19s0,0-.06,0S15.46,5.2,15.45,5.27Zm0,5.26s0,0,0,0S15.47,10.53,15.47,10.53Zm0,.21s0,0,0,0S15.49,10.73,15.49,10.73Zm0,.16,0,.05,0,0,0-.05Zm.07-1.24s0,0,0,0S15.58,9.64,15.56,9.65Zm0-.23s0,0,0,0S15.57,9.43,15.57,9.42Zm0,.42s0,0,0,0S15.55,9.84,15.55,9.84Zm0,1.48s0,0,0,0S15.5,11.34,15.51,11.33Zm0,1.78s0,0,0,0S15.51,13.11,15.52,13.1Zm0-1.07,0,0,0,0,0,0Zm.07,0s0,0,0,0S15.6,12.05,15.6,12.06Zm-.07-1.56s0,0,0,0S15.52,10.49,15.53,10.49Zm0-2.81s0,0,0,0S15.49,7.67,15.49,7.68Zm-.06-3.56c.06,0,0,.06,0,.1s-.08,0-.08-.06S15.41,4.15,15.43,4.12Zm0,.2c.07.05,0,.1,0,.12s-.06,0-.08-.06S15.41,4.33,15.44,4.33Zm0,.19c.06,0,.06.1,0,.14s-.06,0-.08-.06S15.39,4.57,15.44,4.52Zm0,.24s0,0,0,0,0,.06,0,.09,0,0-.08-.06S15.37,4.79,15.41,4.76Zm0,1.34,0,0,0,0,0,0Zm0-.18s0,0,0,0S15.37,5.92,15.37,5.92Zm0,.87s0,0,0,0S15.39,6.78,15.4,6.78Zm0-.64s0,0,0,0S15.35,6.16,15.36,6.15Zm0-.47s0,0,0,0S15.4,5.68,15.4,5.67Zm0,1.49c.06,0,0,0,0,.07s-.06,0-.08,0S15.37,7.19,15.4,7.17Zm-.08,2.25s0,0,0,0S15.32,9.43,15.31,9.42Zm0,.21c0,.07,0-.07,0,0Zm0-.24s0,0,0,0S15.31,9.39,15.31,9.38Zm0,0s0,0,0,0S15.35,9.4,15.34,9.39Zm.06,2.84s0,0,0,0S15.39,12.23,15.4,12.24Zm0-4.79,0,0s0,0,0,0S15.41,7.43,15.36,7.44Zm0,2.36s0,.05,0,.07S15.31,9.82,15.31,9.8Zm0,.27s0,0,0,0S15.32,10.06,15.32,10.07Zm-.08-4.78s0,0-.07,0,0,0,0-.07.06,0,.1,0,0,0,0,.06S15.22,5.26,15.23,5.29Zm0,.16c.07,0-.07,0,0,0Zm0-.4s-.06,0-.08,0S15.21,5,15.24,5Zm0-.07s0,0,0,0S15.19,5,15.19,5Zm0-.84a0,0,0,1,1,0,.08S15.2,4.16,15.18,4.13Zm0,.3s0-.06,0-.1S15.24,4.41,15.19,4.43Zm0,.13s0,0,0,.06h-.06S15.17,4.59,15.2,4.56Zm0,.19s.06.06.06.08-.1,0-.12,0Zm0,1.31c.05,0,0,0,.07.07s-.08,0-.12,0Zm0,3.11s0,0,0,0S15.13,9.18,15.13,9.18Zm0,.41,0,0,0,0,0,0Zm0-1.12s0,0,0,0S15.11,8.45,15.16,8.47Zm0-2c0,.07-.09,0,0,0Zm0,.93,0,0,0,0,0,0Zm0-1.1s0,0,0,0S15.17,6.35,15.17,6.35Zm-.05,1.52s0,0,0,0S15.13,7.85,15.12,7.86Zm0,2,0,0,0,0,0,0Zm0,3.27s0,0,0,0S15.12,13.09,15.11,13.1Zm0-2s0,0,0,0S15.09,11.12,15.09,11.12Zm0,1.07s0,0,0,0S15.06,12.19,15.06,12.19Zm0-1.51s0,0,0,0S15.06,10.67,15.06,10.68Zm0,.47c0-.08.08,0,0,0Zm0-7,0,0s0,0,0,0l0,0s0,0,0,0l0,0s0,0,0,0l0,0S15,4.16,15,4.15Zm0,.2a0,0,0,0,1,0,.08C14.93,4.37,15,4.34,15,4.34Zm0,.23s0,0,0,0l0,0,0,0,0,0Zm0,.18s.08.06,0,.12,0,0-.06-.06S15,4.77,15,4.75Zm0,.49c0-.07,0,.07,0,0ZM15,5s0,0,0,0S15,5,15,5Zm0,1.1s0,0,0,0S15,6.11,15,6.11Zm-.05.19s0,0,0,0S14.92,6.3,14.92,6.3Zm0,.43s.07,0,0,0l0,0S14.89,6.75,14.89,6.74ZM14.8,4.12s0,.06,0,.08S14.74,4.12,14.8,4.12Zm0,.22s0,0,0,0,0,0-.07,0,0,0,0-.06S14.77,4.35,14.79,4.34Zm0,.19s0,.06.06.08-.08,0-.12,0S14.7,4.55,14.77,4.53Zm0,.32s0,0,0,0,0,0,0-.07S14.8,4.83,14.77,4.86Zm0,.11s0,0,0,.07,0,0,.06,0-.11.05-.14,0S14.71,5,14.76,5Zm.1,2.45s0,0,0,0S14.85,7.41,14.86,7.42ZM14.6,4.83l0,0c-.05,0-.06-.05-.06-.09A.06.06,0,0,1,14.6,4.83Zm-.07-.29c.06,0,0,.06,0,.09S14.52,4.55,14.54,4.54Zm0-.2s0,0,0,.06-.06,0-.08,0A.12.12,0,0,1,14.58,4.34Zm0,.63s0,0,.06,0-.06.09-.1.07S14.5,5,14.54,5Zm-.28-.16.06-.06s.08.07,0,.1S14.28,4.85,14.27,4.8Zm.11.23c-.05.05-.08,0-.1,0s0,0,.06-.06S14.36,5,14.37,5Zm0-.7s0,.06,0,.08,0,0,0-.07Zm0,.2a.06.06,0,0,1,0,.11s0,0,0-.06A.12.12,0,0,1,14.34,4.54Zm-.07-.17s0,0,0,0S14.27,4.36,14.27,4.37Zm0,0c-.06,0,0,0-.1.07s-.07,0-.07-.1S14.18,4.33,14.23,4.37Zm0,.23-.07.07s-.06-.08,0-.12S14.17,4.54,14.19,4.59Zm-.1.14s.06,0,.09.07a.13.13,0,0,1-.11,0A.07.07,0,0,1,14.09,4.74Zm0,.23s0,0,.06,0,0,0,0,0S14.07,5,14,5,14.12,5,14.1,5Zm-.17-.67s0,0,0,.07,0,0-.06.06-.06,0-.08-.06S13.88,4.31,13.93,4.3Zm0,.52,0,0,0,0,0,0Zm0,.19s0,0-.06,0a.06.06,0,0,1,0-.1S13.92,5,13.93,5Zm-.09-.41c0-.07.06-.09.12-.07S13.89,4.69,13.84,4.6Zm-.15-.38s0,0,0,0S13.68,4.23,13.69,4.22Zm0,0s0,.07.07.1-.1.06-.15,0Zm0,.31-.06.06s0-.06,0-.08S13.72,4.52,13.74,4.58Zm-.06.16s0,0,0,.06-.06,0-.1,0S13.63,4.76,13.68,4.73Zm0,.3s0,0,0,0,0,0,0,0S13.7,5,13.69,5Zm-.22-.74a.11.11,0,0,1,0,.07l0,0s0,0,0,0A.11.11,0,0,1,13.47,4.29Zm0,.24s.06,0,.06.06-.06,0-.08,0S13.45,4.55,13.44,4.53Zm.06.21s0,.1-.05.14a.16.16,0,0,1,0-.11C13.44,4.71,13.47,4.79,13.5,4.74Zm0,.26c-.05.07-.11,0-.1,0S13.48,5,13.52,5Zm-.26-.72s0,0,0,.07a.11.11,0,0,1-.07,0s0,0,0-.06Zm0,.35s-.07-.07-.07-.1S13.36,4.58,13.26,4.64ZM13.19,5l.07,0s0,.08,0,0,0,0,0,.06S13.21,5,13.19,5Zm.06.11s0,0,0,0S13.24,5.07,13.25,5.07Zm0-.32,0,0s0,.06,0,.1,0,0,0,0S13.23,4.78,13.21,4.76ZM13,4.3s0,.08,0,.12-.05,0,0,0S13,4.36,13,4.32,13,4.32,13,4.3Zm0,.21c.05,0,0,.07,0,.1l-.07,0c0-.05,0,0,0-.07S13,4.54,13,4.5Zm0,.31c-.07,0,0,0-.07-.07s.06,0,.08,0S13,4.79,13,4.82ZM13,5s0,0,0,0S13,5,13,5Zm-.17-.71s0,0,.06.06,0,.06-.1.07,0-.06,0-.09S12.81,4.3,12.83,4.27Zm0,.41c0-.06-.08-.12,0-.18s0,0,0,0l.06.06s-.07.1-.07.14.12.12,0,.18l-.08-.09S12.8,4.72,12.8,4.68Zm.07.34s-.07,0-.1,0A.06.06,0,0,1,12.83,5S12.84,5,12.87,5Zm-.26-.79a.3.3,0,0,0,.08.11s0,.07-.09.11,0-.07-.08-.11A.31.31,0,0,0,12.6,4.23Zm0,.6a.11.11,0,0,1,0-.07c.07,0,.08,0,.13,0Zm0,.19a0,0,0,0,1,0-.07S12.62,5,12.59,5Zm0-.54a.08.08,0,0,1,.07.07l-.06.06s0,0,0,0S12.54,4.52,12.58,4.48Zm-.15.29-.07.07a.52.52,0,0,0,0-.1S12.4,4.72,12.44,4.77Zm0,.25s0,0-.06,0,0-.07.06-.11A.08.08,0,0,1,12.4,5Zm-.24-.1s0,0,0,0,0,0,0,0-.07,0-.11,0S12.14,4.95,12.16,4.92ZM12,4.75s0,0,0,.07-.07,0-.08-.09S12,4.69,12,4.75ZM12,5c-.07,0,0-.06-.07,0s.07,0,.1,0S12,5,12,5Zm-.08,0s0,0,0,0S11.88,5,11.88,5Zm-.15-.74s0,.05.08.09a.31.31,0,0,0-.09.11s0-.07-.08-.11Zm0,.21s0,.06.07.1-.07.07-.1.07,0,0-.07-.07Zm.07.31-.08.08c-.07-.05-.06-.11,0-.16Zm-.1.12c.05,0,0,.07.09.1s0,.07-.08.11A.34.34,0,0,0,11.64,5S11.73,4.91,11.71,4.88Zm-.16-.61s0,.06,0,.09a.08.08,0,0,1-.11,0S11.52,4.27,11.55,4.27Zm0,.2a.07.07,0,0,0,.07,0c.05,0,0,.07-.06.11s0,0-.07-.07Zm0,.21.06.06c0,.05-.09.09-.13,0S11.49,4.72,11.52,4.68Zm.06.28s0,.05-.06.08L11.44,5C11.47,4.91,11.53,4.9,11.58,5Zm-.32-.16s0-.07,0-.11.05,0,.08.06S11.3,4.8,11.26,4.8Zm.06.23s-.06,0-.08-.06.06-.06.09-.06A.07.07,0,0,1,11.31,5Zm0-.56c.08.08,0,.16-.1.07S11.29,4.49,11.32,4.48Zm-.24,0c.09,0,.09.1,0,.17S11,4.5,11.08,4.45Zm0,.23s.07.1,0,.13L11,4.75Zm0,.23s0,0,0,0,0,0,0,.07S11,5,11,5Zm-.22-.69c.05,0,0,0,.11.09s-.09.05-.06.08a.1.1,0,0,1-.1-.1S10.88,4.24,10.85,4.22Zm0,.24s.06,0,.08.06,0,0-.05.07-.06,0-.08-.09Zm.07.27a.09.09,0,0,1-.07.07l0-.05C10.82,4.69,10.87,4.68,10.92,4.72Zm-.06.18a.07.07,0,0,1,0,.11s-.05,0-.07-.07S10.84,4.93,10.86,4.9Zm-.22-.67s.06.05.08.09a.08.08,0,0,1-.11,0S10.59,4.28,10.64,4.24Zm0,.51s.06,0,.08,0S10.6,4.78,10.61,4.74Zm.06.23a0,0,0,0,1,0,0S10.65,5,10.66,5Zm0-.41s0-.06,0-.1l.06.06A.08.08,0,0,1,10.62,4.56Zm-.2-.09a.11.11,0,0,1,.07.05s-.08.06-.12,0S10.38,4.5,10.42,4.47Zm0,.24s0,0,.06,0,0,0,0,.06S10.39,4.75,10.39,4.71Zm0,.24s0,0,0,0S10.43,4.95,10.43,5Zm-.28-.68a.08.08,0,0,1,.13,0s-.09.06-.13,0A.06.06,0,0,0,10.16,4.28Zm.12.22s0,0,0,0S10.28,4.49,10.28,4.5ZM10.2,5s0,0,0,0S10.22,5,10.2,5Zm0-.28s.13,0,0,.07S10.18,4.76,10.17,4.71Zm.08-.14c-.07,0-.11-.11,0-.1S10.24,4.53,10.25,4.57ZM10,4.34s-.09,0-.11,0A.06.06,0,1,1,10,4.34Zm0,.2s0,0-.07,0,0,0,0-.07S10.05,4.47,10.05,4.54ZM10,4.92s0,0,0,0S10,4.94,10,4.92Zm0,.23s0,0,0,0S10,5.15,10,5.15Zm0-.36s-.07-.06,0-.12a.11.11,0,0,1,0,.07Zm-.18-.56s0,0,0,.07-.06,0-.09.06S9.74,4.23,9.81,4.23Zm0,.2.07.07c-.05,0,0,.07-.09.11s0-.07-.08-.11S9.76,4.46,9.79,4.44Zm-.08.48s0,0,.06,0h0s0,0,0,0,0,0,0,0,0,0,0,.07S9.71,5,9.71,4.92Zm.08.25s0,0,0,0A0,0,0,0,1,9.79,5.17ZM9.71,4.7s.06,0,.08,0,0,.06,0,.08a.1.1,0,0,0-.06,0S9.71,4.73,9.71,4.7Zm.12.45s0,0,0,0S9.83,5.14,9.84,5.15Zm-.27-.92s.06,0,.08.06,0,0-.06.06,0-.06-.06,0A.08.08,0,0,1,9.57,4.23Zm.07.29-.06.06s-.06,0-.09-.07S9.6,4.44,9.63,4.52Zm-.07.61s0,0,0,0,0,0,0,0S9.55,5.15,9.56,5.13Zm0,0s0,0,0,0S9.56,5.1,9.55,5.09Zm0-.15,0,0s0,0,0,.06S9.54,5,9.52,4.94Zm0-.24c.05-.07.11,0,.13,0S9.5,4.76,9.5,4.7Zm-.15-.47s0,0,0,0a.14.14,0,0,1,0,.16s0,0,0,0,.05,0,.08.06-.08.06-.12,0,0-.08,0-.16,0-.07-.08-.11Zm0,1.07s0,0,0,0S9.33,5.31,9.33,5.3Zm0,.11s0,0,0-.06A0,0,0,0,1,9.33,5.41Zm0-.22,0,0,0,0s0,0,0,0l0,0Zm0-.26s0,0,0,0S9.33,4.94,9.34,4.93Zm0,.16s0,0,0,0S9.37,5.08,9.37,5.09Zm0-.32s0,0-.07,0,0-.05.1,0A.07.07,0,0,1,9.35,4.77ZM9.13,4.2l.08.08c-.05,0,0,.09-.09.08s.07.08.08.13-.11.08-.16,0,.12-.15,0-.23A.14.14,0,0,1,9.13,4.2Zm-.06,1c0-.05,0,0,.06-.08a.11.11,0,0,1,0,.07S9.1,5.21,9.07,5.16Zm0,.19c.08,0,0,.08,0,0Zm.06-.48s0,0,0,0S9.15,4.87,9.15,4.87Zm0,0s0,0,0,0S9.14,4.86,9.14,4.85Zm0,.08s0,0,0,0S9.13,4.93,9.13,4.93Zm0-.08s0,0,0,0S9.13,4.84,9.12,4.85Zm-.06-.16c.07,0,.12,0,.13,0S9.06,4.76,9.06,4.69Zm-.15-.5L9,4.28s-.06,0-.1.07l-.07-.07ZM8.86,5.58s.06,0,.07,0l0,0S8.88,5.57,8.86,5.58Zm0,.14s0,0,0,0S8.89,5.7,8.88,5.72Zm0-.33s0,0,0,0S8.92,5.38,8.91,5.39Zm0-.12s0,0,0,0S8.9,5.28,8.9,5.27Zm0-.12s0,0,.06,0,0,0,0,.06S8.89,5.18,8.86,5.15ZM8.9,5s0-.06,0-.1l0,0Zm0-.35s.05.12,0,.12S8.87,4.68,8.92,4.64Zm0-.1s-.06,0-.08,0,0,0,0-.07S9,4.5,8.95,4.55Zm0-.12c0-.06.09-.05,0,0ZM8.7,4.22s0,0,.06,0,0,.06-.06.08l-.06-.06Zm0,.71s0,0,.06,0,0,.06,0,.08Zm0,.21s0,0,0,0S8.68,5.12,8.68,5.13Zm0-.36s0-.07,0-.1l0,0Zm0-.28.05,0a.07.07,0,0,1,0,.1Zm0,.8a.08.08,0,0,1,0,.12s0,0-.06,0S8.64,5.32,8.67,5.29Zm0,.28s0,0,0,0S8.68,5.56,8.68,5.57Zm-.22-.62,0,0s.05,0,0,0,0,0,0,0S8.48,5,8.46,4.95Zm0,.4s0,0,0,0S8.46,5.34,8.46,5.34Zm0-.55s0,0,0,0S8.49,4.8,8.48,4.8Zm0,.34c0-.07,0,.07,0,0Zm0,.22s0,0,0,0S8.51,5.35,8.52,5.36Zm-.11-.65c0-.09.1,0,.13,0S8.45,4.76,8.41,4.71Zm0-.25s.06,0,.1,0-.06.05-.1,0,0,0,0,0A.05.05,0,0,0,8.43,4.45Zm.05-.24.06.06s-.05.07-.07,0,0,0-.07,0S8.45,4.24,8.48,4.21Zm-.26,0s0,0,0,0,0,0,0,0,.06.07,0,.1,0,0,0,0S8.22,4.26,8.22,4.23Zm0,.2c.05,0,.09,0,.11.06s-.11,0-.13,0S8.27,4.47,8.22,4.44Zm.09.24s0,.06-.06.08-.06-.06-.06-.08S8.28,4.65,8.32,4.68Zm-.11.25s0,0,0,0a.07.07,0,0,1,.07,0S8.23,5,8.2,4.93Zm.07.22,0,0,0,0,0,0Zm-.16-.87c0,.05-.06,0-.1,0S8.09,4.16,8.12,4.28ZM8,4.53s0-.06,0-.1l0,0A.1.1,0,0,1,8,4.53Zm.07,0s0,0,0,0S8.1,4.56,8.1,4.56Zm0,.1s0,.06,0,.09,0,0-.06,0A.12.12,0,0,1,8.06,4.66Zm0,.44s0,.08-.06,0S8,5.11,8.06,5.1Zm0-.17c-.08,0,0-.08,0,0Zm-.23-.41s0-.06,0-.08S7.87,4.52,7.83,4.52Zm0,.17s0,0,0,0S7.86,4.68,7.87,4.68Zm0,.19s0,0,0,.06S7.79,4.87,7.84,4.88Zm0,.29c0,.07-.06-.06-.1,0S7.86,5.13,7.89,5.17Zm-.06-1s.09.05,0,.1,0,0-.06-.06Zm0,.49s0,0,0,0S7.81,4.69,7.81,4.7Zm-.14-.41s0,0,0,0S7.67,4.28,7.67,4.28Zm-.07,0s0,0,0,0l0,0,0,0,0,0Zm0,.27s-.06,0-.08-.06S7.65,4.47,7.65,4.5Zm0,.14c.06,0,0,.07,0,.11s-.08,0-.09-.05Zm0,.28s0,0-.06,0S7.64,4.87,7.63,4.92Zm0,.19s0,0,0,0S7.62,5.11,7.62,5.11Zm-.23-.9c.08,0,0,.1,0,.07A0,0,0,0,1,7.4,4.22Zm0,.13s0,0,0,0S7.41,4.35,7.41,4.35Zm0,.07s.06,0,.09,0-.08,0,0,0S7.3,4.45,7.36,4.42Zm0,.25,0,0,0,0,0,0Zm0,.23c0-.07,0,.07,0,0Zm-.17-.64s-.08,0-.08,0S7.2,4.23,7.23,4.26Zm0,.17s0,.09-.06,0S7.18,4.44,7.2,4.43Zm0,.2a.07.07,0,0,1,0,.1s0-.08,0,0S7.17,4.67,7.19,4.64Zm0,.24c0,.06-.08.05,0,0Zm0,.22c0,.08-.08,0,0,0ZM7,4.2c.07,0,.07.09,0,.1A.06.06,0,0,1,7,4.2Zm0,.31s-.06-.06,0-.07,0,0,0,0S7,4.49,7,4.51Zm0,.19c-.06,0,0,0-.08-.06A.07.07,0,0,1,7,4.71Zm-.08.19s0,0,.06,0S6.95,4.94,6.92,4.9Zm0,.24s0,0,0,0S6.95,5.13,7,5.14Zm-.18-.87s-.07,0-.07,0S6.76,4.24,6.78,4.27Zm-.09.15a.09.09,0,0,1,.1,0s0,0,0,0-.06,0-.08,0S6.7,4.44,6.69,4.42Zm.05.52s-.06-.05,0-.08S6.78,4.92,6.75,4.94Zm0,.17s0,0,.06,0S6.71,5.15,6.7,5.11Zm0-.44s0,0,0,0S6.73,4.68,6.74,4.67Zm-.16-.41a.06.06,0,0,1-.1,0S6.58,4.2,6.58,4.26Zm-.07.85c0-.06,0,0,0,0h0S6.5,5.12,6.5,5.11Zm0-.19s0,0,0,0S6.48,4.92,6.48,4.91Zm0,0,0,0s0,0,0,.06S6.52,4.88,6.51,4.87Zm0,.22s0,0,0,0S6.55,5.08,6.55,5.08Zm-.06-.63s.07,0,.07,0S6.51,4.49,6.49,4.46Zm.06.18a.08.08,0,0,1,0,.07s0,0-.06,0S6.52,4.66,6.55,4.64Zm-.23-.46s.06.05,0,.11,0,0-.07-.05S6.28,4.21,6.31,4.18Zm0,.22s.06,0,.08.06,0,0,0,0-.07,0-.11-.06Zm0,.44,0,.05A0,0,0,1,1,6.29,4.84Zm0,.3s0,0,0,0S6.33,5.13,6.32,5.14Zm0-.42a.07.07,0,0,1,0-.12S6.38,4.68,6.32,4.72Zm-.21-.56.06.06s0,0-.06.08,0,0-.07,0S6.05,4.2,6.11,4.16ZM6,4.45c0-.06.09-.07.15,0s-.06,0-.08.06.09.13,0,.19-.06,0-.09,0,0-.1,0-.14S6,4.49,6,4.45Zm.11.44a.11.11,0,0,1-.07,0s0-.07,0-.11Zm-.31-.69s.08,0,.12,0,0,0,0,0-.07,0-.11,0S5.84,4.21,5.83,4.19Zm0,1s0-.06,0-.07.07,0,.11,0S5.84,5.11,5.88,5.15Zm0-.33s0,.06,0,.08-.06,0-.08,0S5.84,4.82,5.89,4.82Zm0-.08s0,0-.06-.06a.52.52,0,0,1,.06-.11s0,.07.06.11Zm0-.31s0,0,.07,0a.06.06,0,0,1,0,.1s0,0,0,0S5.86,4.45,5.84,4.42Zm-.19-.24s0,0,.07,0-.07.07-.1,0S5.64,4.2,5.65,4.18Zm.07.27s-.07,0-.11,0S5.68,4.39,5.72,4.44Zm-.1.19c.1-.07.09.13,0,0s0,0,.06,0S5.63,4.68,5.62,4.64Zm0,.28,0,0,0,0s0,0,0,0S5.68,4.91,5.65,4.91Zm0,.12s0,0,0,0S5.66,5,5.66,5Zm0-.2s0,0,0,0S5.63,4.85,5.63,4.84Zm.07.27s-.06,0-.08,0S5.67,5.06,5.7,5.11Zm-.24-.93,0,0s0,0-.07,0S5.42,4.21,5.46,4.18Zm0,.23c0-.05,0,0,0,0l0,0C5.38,4.43,5.46,4.43,5.44,4.4Zm0,0s0,0,0,0S5.42,4.4,5.42,4.4Zm0,.3,0,0,0,0,0,0,0,0s0,0-.06-.06S5.51,4.65,5.45,4.71Zm0,.37s0,0,0,0S5.44,5.07,5.46,5.08ZM5.4,4.87l0,0s0,0,0,0l0,0,0,0Zm.06.06s0,0,0,0S5.45,4.94,5.46,4.93Zm-.25,0s0,0,0,0,0,0,0,0l0,0S5.21,4.89,5.2,4.89Zm0,.17,0,0,0,0,0,0Zm0-.4s0,0,.06,0S5.22,4.65,5.2,4.67Zm0-.23a.07.07,0,0,1,.1,0S5.22,4.48,5.19,4.44Zm0-.25s0,0,0,0h.06s0,0,0,.07-.06,0-.08,0S5.19,4.19,5.18,4.18ZM5,4.18s0,0,0,.06-.06,0-.1,0,0,0,0,0l0,0Zm0,.88a.09.09,0,0,0,0,0H5s0,0,0,0S5,5.07,5,5.06Zm0-.18,0,0C5.07,4.86,5,4.93,5,4.88Zm0-.23s0,0,.06,0S5,4.7,5,4.65ZM5,4.4s0,0,0,.06S5,4.43,5,4.4Zm-.23-.23s0,0,.07,0a.11.11,0,0,1-.07,0A.07.07,0,0,1,4.78,4.16Zm0,.69s0,0,.06,0S4.76,4.88,4.76,4.85Zm0,.19a.07.07,0,0,1,0,.07A0,0,0,0,1,4.81,5Zm0-.36,0,0,.05,0,0,0Zm0-.3s0,.06,0,.08,0,0,0-.07S4.78,4.41,4.8,4.38Zm-.08.67s0,0,0,0S4.71,5.06,4.72,5.05Zm-.1-.64s0,0-.07,0,0,0,0,0S4.6,4.44,4.62,4.41Zm0-.24s0,0,0,0,0,0,0,0l0,0Zm0,.42a0,0,0,0,0,.06,0,.07.07,0,0,1,0,.07S4.48,4.63,4.54,4.59Zm0,.3s0,0,0,0S4.58,4.88,4.57,4.9Zm-.18-.73s0,0,0,.07,0,0,0,0,0,0,0,0Zm-.05.24s0,0,0,0,0,0,0,0S4.34,4.4,4.33,4.41Zm.07.22s0,0,0,0,0,0-.07,0S4.38,4.6,4.4,4.63Zm0,.18,0,0s0,0,0,0l0,0S4.33,4.84,4.36,4.81Zm0,.25s0,0,0,0,0,.14,0,.07S4.34,5.08,4.32,5.06Zm-.08,0c0,.06-.1.06-.15,0s0,0,0,0,0,0,0,0S4.2,5,4.24,5.07Zm-.07-.22s0,0-.06,0S4.16,4.82,4.17,4.85Zm0-.67,0,0,0,0S4.13,4.18,4.16,4.18Zm0,.27s0,0,0,0S4.14,4.43,4.15,4.44Zm0,.17c0,.06,0,0-.06,0S4.13,4.63,4.15,4.61Zm-.27-.45L4,4.2l-.06.06S3.88,4.19,3.88,4.16Zm0,.71s0,0,0,0S3.9,4.87,3.9,4.87Zm0,0s0,0,0,0S3.88,4.83,3.88,4.82Zm0,.21s0,.06,0,.08S3.88,5.06,3.91,5Zm0-.17s0,0,0,0S3.92,4.87,3.92,4.86Zm0-.25s0,0,.07,0A0,0,0,0,1,3.88,4.61Zm0-.22s0,0,0,0,0,0,0,.06S3.91,4.41,3.89,4.39Zm-.13.2s0,0,0,0S3.74,4.59,3.75,4.59ZM3.68,4.4h0l0,0S3.7,4.42,3.68,4.4Zm0-.22s0,0,0,0S3.7,4.19,3.71,4.18Zm0,0s0,0,0,0S3.7,4.21,3.7,4.22Zm0,.63s0,0,0,0S3.69,4.84,3.69,4.85Zm0,.24s0,0-.07,0A0,0,0,0,1,3.73,5.09Zm-.23-.89s0,0,0,0S3.51,4.19,3.51,4.19Zm0,.2s0,0,0,0,0,0,0,0,0,0,0,.07,0,0,0,0,0,0,0,0S3.53,4.42,3.49,4.4Zm0,.18c.05,0,0,0,0,.07S3.43,4.59,3.48,4.58Zm0,.46c.05,0,0,.06,0,.06S3.48,5.05,3.49,5Zm-.18-.85s0,0,0,0S3.31,4.18,3.31,4.19Zm0,.87s-.06,0-.08,0S3.3,5,3.32,5.06ZM3.26,4.5s0,0,0,0S3.26,4.49,3.26,4.5Zm-.18-.11s0,0,0,0S3.08,4.38,3.08,4.39Zm0,.22s0,0,0,0S3,4.62,3.05,4.61Zm0,.22s0,0,0,0S3.07,4.82,3.07,4.82Zm0-.63s0,0,0,0S3.06,4.19,3.06,4.2Zm0,.85s0,0,0,0S3,5,3,5.05ZM3,5S3,5,3,5,3,5,3,5ZM3,9.14s0,0,0,.06H3s0,0,0,0v0h0S3,9.15,3,9.14ZM3,5.9S3.06,6,3,6,3,5.92,3,5.9ZM3,5.7s0,0,0,0S3,5.71,3,5.7Zm-.27,5s0,0,0,0S2.7,10.71,2.7,10.72Zm0-.22s0,0,0,0S2.67,10.5,2.67,10.49Zm0-.27s0-.09,0-.13,0,0,.07.05S2.71,10.2,2.66,10.23Zm-.13,1.56s0,0,.06,0,0,0,.07,0S2.57,11.87,2.53,11.79Zm0,.24s0,0,0,0,0,0,0,0S2.58,12,2.56,12ZM2.53,9s0,0,0,0S2.53,9,2.53,9Zm0,.65s0,0,0,0S2.55,9.6,2.55,9.61Zm0,.22s0,0,0,0S2.55,9.82,2.56,9.83Zm0-1.09s0,0,0,0S2.61,8.73,2.61,8.74Zm0-.43s0,0,0,0S2.6,8.3,2.58,8.31Zm0-.4s0,0,0,0S2.61,7.91,2.6,7.91Zm0-.28s0,0,0,0S2.56,7.65,2.57,7.64Zm0,.47s0,0,0,0S2.56,8.1,2.57,8.1Zm0,.64s0,0,0,0S2.58,8.74,2.58,8.74Zm0,2.86c0-.05,0,0,.07,0S2.62,11.55,2.59,11.6Zm0-6,0,0a.11.11,0,0,1-.07,0S2.58,5.68,2.61,5.65Zm0,1.57s0,0,0,0S2.58,7.21,2.57,7.21Zm.06-2.83s0,0,0,0S2.62,4.39,2.62,4.38Zm0,.11s0,0,0,0S2.66,4.49,2.66,4.49Zm0-.13s0,0,0,0S2.63,4.35,2.62,4.36Zm0,.65,0,0,0,0S2.59,5,2.61,5Zm0-.18s0,0,0,0S2.62,4.84,2.6,4.83Zm0,.45s0,0,0,0S2.62,5.27,2.61,5.27ZM2.6,7s0,0,0,0S2.6,7,2.6,7Zm0-.9s0,0,0,.07S2.61,6.13,2.63,6.11Zm0,5c.09,0,0,.1,0,0Zm.09-1.5s0,0,0,0S2.7,9.63,2.7,9.63Zm0,.24s0,0,0,0S2.74,9.87,2.74,9.87Zm0,.37s0,0,0,0S2.74,10.24,2.75,10.25Zm0-.89a0,0,0,0,1,0,.06A0,0,0,0,1,2.77,9.36Zm0-.11c-.07,0,.07,0,0,0Zm0,1s0,0,0,0S2.77,10.23,2.77,10.24Zm0,.47s0,0,0,0A0,0,0,0,1,2.75,10.71Zm0-.24s0,0,0,0S2.73,10.48,2.73,10.47Zm0,1.07s0,0,0,0S2.75,11.53,2.75,11.54Zm.08.51s-.06,0-.1,0S2.84,12,2.83,12.05Zm-.06-.25s.16,0,.09.05S2.8,11.87,2.77,11.81Zm.08-.43s0,0,0,0S2.85,11.37,2.85,11.38Zm0-.22c0,.07,0-.07,0,0Zm0-2.84s0,0,0,0S2.82,8.33,2.83,8.32ZM2.83,7s0,0,0,0S2.83,7,2.83,7Zm0-.23s0,0,0,0S2.81,6.78,2.8,6.77Zm0,.23s0,0,0,0S2.81,7,2.81,7Zm0-.42c-.08,0,0-.08,0,0Zm0-1.1s0,0,0,0S2.81,5.49,2.81,5.48Zm0,.69s0,0,0,0S2.82,6.16,2.81,6.17Zm0,1s0,0,0,0S2.81,7.21,2.81,7.22Zm0,.61s0,0,0,0,0,0,0,0,0,0,0,0S2.79,7.85,2.81,7.83Zm0,.26s0,0,0,0S2.8,8.09,2.8,8.1Zm0,.19s0,0,0,0S2.78,8.28,2.78,8.29Zm0,.24,0,0,0,0,0,0Zm0,.23s0,0,0,0S2.79,8.76,2.8,8.75Zm0,2.84s0,0,0,0S2.84,11.59,2.84,11.59Zm0-.63c-.05,0,0-.09,0,0Zm0-.24,0,0,0,0,0,0ZM3,12.63s0,0,0,.06L3,12.75s0,0,0-.08A.12.12,0,0,1,3,12.63Zm0-.23s.07.07.06.1S2.87,12.46,3,12.4Zm0-3Zm0,0s0,0,0,0S3,9.39,3,9.39Zm0,.19,0,.05s0,0-.06,0v0h0A.06.06,0,0,1,3,9.58Zm0,2.29s0-.06,0-.08S3.05,11.89,3,11.87ZM3,12s0,0,0,0S3,12,3,12Zm0,.3,0,0s0-.07,0-.1,0,0,0,0S3,12.26,3,12.28ZM3,10.56s0,0,0-.06,0,0,0,0Zm0-.51,0,0,0,0,0,0Zm0,1.5s0,0,0,0S3,11.55,3,11.56Zm0,.54S3,12,3,12,3,12,3,12s0,0,.05.09Zm0-.44s0-.07,0-.1,0,0,0,0S3.06,11.63,3,11.65ZM3,8.74s0,0,0,0S3,8.73,3,8.74Zm0-.22s0,0,0,0S3,8.53,3,8.52ZM3,9S3,9,3,9,3,9,3,9Zm0-.65s0,0,0,0S3.07,8.33,3.06,8.35Zm0-.23s0,0,0,0S3,8.12,3,8.12Zm0,3.22s0,0,0,.07S3,11.36,3,11.34Zm0-.18s0,0,0,0S3.06,11.17,3,11.16Zm0-.22s0,0,0,0S3.06,11,3.06,10.94Zm0-2.38s0,0,0,0S3.07,8.57,3.07,8.57Zm0,2.18s0,0,0,0S3.11,10.74,3.11,10.74ZM3.09,6s0,0,0,0S3.1,6,3.09,6Zm0,1.95s0,0,0,0S3.09,7.91,3.09,7.92ZM3,5.28s0,0,0,0S3,5.29,3,5.28Zm0,.44s0,0,0,0S3.05,5.72,3,5.73Zm0,.89,0,0C3,6.51,3.08,6.58,3,6.62ZM3,5.5s0,0,0,0S3,5.5,3,5.5ZM3,7.63l0,0,0,0,0,0Zm0,.19,0,0a.08.08,0,0,1-.1,0Zm0,.25a0,0,0,0,1,0,.06s0,0,0,0ZM2.92,9.85s0,0,0,0h0S2.91,9.86,2.92,9.85Zm0,.67s0,0,0,0A0,0,0,0,1,2.9,10.52Zm0-.2a0,0,0,0,1,0-.06S2.88,10.31,2.86,10.33Zm0-.22s0,0,0,0S2.86,10.12,2.85,10.11Zm0-4s0,0,0,0S2.85,6.14,2.85,6.13Zm0-1.75s0,0,0,0S2.83,4.4,2.84,4.39Zm0,.22s0,0,0,0S2.86,4.6,2.86,4.6Zm0,.18,0,.05S2.77,4.82,2.82,4.78Zm0,.46,0,0,0,0,0,0Zm0,2.38a0,0,0,0,1,0,.06C2.74,7.65,2.76,7.63,2.8,7.63Zm0,.49s0,0,0,0S2.78,8.11,2.78,8.12Zm0,1.06s0,0,.05,0,0,0,0,0l0,0s0,0,0,0S2.74,9.18,2.76,9.18Zm0,.26s0,0,0,0S2.74,9.43,2.74,9.44Zm0-2a.07.07,0,0,1-.07,0S2.7,7.46,2.73,7.48Zm-.12-3s0,0,.06,0S2.63,4.53,2.61,4.52Zm.05-.34c0,.05-.07,0-.11,0A.07.07,0,0,1,2.66,4.18ZM2.55,6.73s0,0,0,0S2.54,6.74,2.55,6.73Zm.07.66a.08.08,0,0,1,0,.08l-.06-.06S2.59,7.42,2.62,7.39Zm-.07.73s0,0,0,0S2.54,8.12,2.55,8.13Zm0,1.71s0,0,0,0S2.52,9.83,2.52,9.83Zm0,2.55s0,.06,0,.09-.08,0-.1,0Zm-.1-4.73s0,0,0,0S2.45,7.65,2.45,7.66Zm0,.62s.06.06,0,.07S2.46,8.31,2.41,8.28Zm0-3.68s0,0,0,0S2.43,4.59,2.43,4.6ZM2.37,7.23s0,0,0,0S2.38,7.23,2.37,7.23Zm0-.47s0,0,0,0S2.37,6.77,2.37,6.76Zm0-.43s0,0,0,0S2.38,6.34,2.38,6.33Zm0-.64s0,0,0,0S2.39,5.7,2.37,5.69Zm0,2.81,0,0-.05,0,0,0Zm-.08-.22s0,0,0,0A0,0,0,0,1,2.34,8.28Zm0,.23s0,0,0,0S2.36,8.5,2.35,8.51Zm0,3.05s0,0,0,0S2.38,11.55,2.38,11.56Zm0-.23s0,0,0,0S2.4,11.35,2.38,11.33Zm0-3.24s0,0,0,0S2.37,8.08,2.37,8.09Zm0-.43s0,0,0,0A0,0,0,0,1,2.35,7.66Zm0,1.29s0,0,0,0S2.34,8.94,2.34,8.94Zm0,.23s0,0,0,0S2.31,9.19,2.31,9.18Zm0-.19s0,0,0,0S2.33,9,2.33,9Zm0,3.07s0,0,0-.06,0,0,.06,0A.06.06,0,0,1,2.36,12.06Zm0-.24,0,0,0,0,0,0Zm0-.7s0,0,0,0S2.4,11.12,2.4,11.12Zm0-.23s0,0,0,0S2.4,10.89,2.4,10.89Zm0-.15s0-.06.05-.09l.07.08-.08.07S2.42,10.78,2.39,10.74Zm.14,2.05s0,0,0,0S2.53,12.79,2.52,12.79Zm0,0s0-.06-.07-.1.1-.05.15,0Zm0-.47s0,0,0-.06.07,0,.1,0S2.61,12.26,2.56,12.29Zm.14,1.33s-.06,0-.09-.08l.09-.08s0,.1.07.08S2.74,13.57,2.7,13.61Zm0-.23s-.05-.06-.08,0,0,0,.08-.09,0,0,.07.05S2.75,13.36,2.7,13.38Zm0-.17s0-.08-.05-.11.09-.06.13,0A.41.41,0,0,1,2.71,13.21Zm-.06-.33c.07-.08.15,0,.14,0S2.69,12.95,2.65,12.88Zm.09-.15a.1.1,0,0,1,0-.08l0,0s0,0,0,.05A.11.11,0,0,1,2.74,12.73Zm0-.24s-.06-.05-.06-.06.06,0,.08,0S2.77,12.48,2.79,12.5Zm0-.21c0-.05,0-.1.06-.14a.17.17,0,0,1,0,.11C2.79,12.32,2.77,12.24,2.74,12.29Zm.08,1.26s0,0,0,0S2.82,13.55,2.82,13.55Zm.05.29a.08.08,0,0,1,0-.11c.05,0,.1,0,.12.06S2.9,13.81,2.88,13.84Zm0-.22,0-.05s0-.06,0-.08,0,0,0,0,0,0,0,0,0,0,.07.05S2.94,13.6,2.89,13.63Zm.3.14s-.07.06-.05.09-.08,0-.12-.08.13-.14,0-.19,0-.06.06-.09.06,0,.09.08S3.09,13.72,3.19,13.77Zm-.1-.45s.07,0,.11,0,0,.05-.1.07S3.08,13.34,3.09,13.31Zm0-.18.08-.07.07.08C3.16,13.21,3.11,13.19,3.07,13.13Zm.27.31-.07-.08s.1-.06.08-.09.06.08.08.11S3.37,13.41,3.34,13.44Zm0-.28s0-.05.07-.08.06,0,.09.08S3.33,13.18,3.3,13.16Zm.22.72c-.07-.06,0-.11,0-.16l.09.1A.13.13,0,0,1,3.51,13.87Zm.12-.49c0,.06-.11.12,0,.19s0,.05-.07.08-.06,0-.08-.07,0-.06.08-.09a.17.17,0,0,0-.06-.12c.06,0,0-.07.09-.1a.33.33,0,0,0-.08-.12l.09-.08s0,0,0,0,0,.1,0,.14S3.63,13.34,3.63,13.39Zm.15.07-.07-.08s0,0,.05,0,.05,0,.08.07Zm0-.22s0,0-.07-.08l.05,0c.05,0,0,0,.07.08Zm.12.16L4,13.34s.07.06.1.09S4,13.5,3.92,13.41Zm.16-.21s0,.06-.07.08,0-.09,0-.14S4,13.17,4.08,13.2ZM4,13.08s0,0,0,0S4,13.08,4,13.08Zm.26.56a.32.32,0,0,1-.09.1l-.07-.08a.23.23,0,0,1,.07-.13s0-.08,0-.12.11-.05.16,0,0,.1-.09.1S4.24,13.6,4.28,13.64Zm-.1-.43.06-.06c.07.05.1.08,0,.15S4.22,13.26,4.17,13.21Zm.07.1s0,0,0,0S4.24,13.3,4.24,13.31Zm.16.42a.14.14,0,0,1-.05-.09s.09,0,.06-.06A.07.07,0,0,1,4.4,13.73Zm.12-.28-.1.09-.07-.08s.06-.08.07-.13,0-.09,0-.13l.05,0s.06,0,.09.08,0,.07-.09.1A.34.34,0,0,1,4.52,13.45Zm.11.08-.07-.08c.07-.08.15,0,.14,0S4.66,13.5,4.63,13.53Zm0-.15s0,0,0,0S4.62,13.39,4.62,13.38Zm.28.35c-.07,0-.1,0-.13,0a.29.29,0,0,1,.09-.1s-.05-.08-.06-.13.06,0,.09-.05,0,.11,0,.15S4.93,13.67,4.9,13.73Zm.44-.56c-.05,0,0-.07-.09-.1s0-.06.09-.08l.08.09S5.32,13.13,5.33,13.16Zm.14.62s0,0,0,0a0,0,0,0,0,0,0s.07-.08.09,0,0,.09,0,0S5.49,13.75,5.47,13.79Zm.22,0s0,0,0,0,0,0,.06,0S5.73,13.78,5.69,13.78Zm0-.2a.12.12,0,0,1-.07-.05s.06-.06.09-.05S5.8,13.55,5.74,13.58Zm.13.18s0,0,.08,0,0,0,0,.08S5.9,13.79,5.87,13.76ZM6,13.59a.09.09,0,0,1-.07-.08s0,0,.06,0l.06.06Zm0-.19s-.06,0-.09-.08,0-.06.08-.09S5.87,13.1,6,13l.07.08s0,0-.07.1,0,.07.08.11Zm.12.37a.11.11,0,0,1,.08,0l0,.05C6.17,13.84,6.13,13.82,6.09,13.77Zm0-.23s0,0,.07,0a.09.09,0,0,1,0,.09S6.14,13.6,6.12,13.54Zm0-.21c0-.06.07-.05.08-.12s0,.09.09.13S6.15,13.41,6.1,13.34Zm.1-.27,0,.05a.07.07,0,0,1-.09.05A.08.08,0,0,1,6.2,13.07Zm.15.77s0-.07,0-.11a.08.08,0,0,1,.07.08S6.37,13.81,6.35,13.84Zm0-.22s0,0-.07-.05l.08-.07S6.46,13.57,6.39,13.62Zm0-.17s0-.07-.09-.1.1-.1.17,0S6.37,13.4,6.4,13.45Zm-.05-.29a.11.11,0,0,1,.09-.08s0,0,0,.06l-.07.06S6.37,13.19,6.35,13.16Zm.21.68s0-.06,0-.08a.11.11,0,0,1,0,.08S6.58,13.83,6.56,13.84Zm0-.26s.07-.08,0-.13.06.11.09.15S6.58,13.65,6.54,13.58Zm0-.22c0-.05.09-.07.13,0S6.59,13.48,6.53,13.37Zm.15-.17s-.07,0-.11,0a.12.12,0,0,1,.08-.07C6.7,13.13,6.68,13.16,6.67,13.2Zm.14.26a.12.12,0,0,0,0-.08s.06-.06.09-.05,0,.06,0,.09S6.84,13.42,6.81,13.46Zm0-.23c0-.05-.07,0-.07-.08s.09,0,.13,0Zm.23.23s0,0-.07-.05,0,0,0-.06S7.13,13.42,7.07,13.47ZM7,13.19s0,0,0,0l.09,0s0,.06,0,.09S7,13.26,7,13.19Zm.27.08-.06-.07s.07-.07.07-.11,0,0,0,0,.06,0,.09.08S7.29,13.28,7.26,13.27Zm.21.27-.08-.09c0-.07,0-.08.1-.11s0,0,.06.1S7.52,13.51,7.47,13.54Zm0-.34.08-.07.08.09C7.52,13.31,7.43,13.28,7.42,13.2Zm.28.12s-.08-.07,0-.12.1,0,.12.06Zm.22,0-.08-.09c0-.05,0,0,.09-.08l.08.09Zm0-.26c-.05,0-.06-.08,0-.1a0,0,0,0,0,0,0s0,.07,0,.1,0,0,0,0S7.93,13.05,7.94,13.07Zm.13.18s.06-.06.09-.05,0,.06.06.09A.08.08,0,0,1,8.07,13.24Zm0-.21s.07,0,.1,0S8.11,13.15,8.09,13Zm.3.53s-.08,0-.12-.06.09-.08.07-.13.07.1.07.14S8.38,13.54,8.39,13.55Zm0-.21s0,0-.06-.06,0,0,.09-.05,0,0,0,.08S8.37,13.31,8.34,13.35Zm.07-.26,0,0s-.08-.05,0-.1S8.38,13,8.41,13.09Zm0-.28s0,.06,0,.08S8.35,12.8,8.39,12.81Zm.1.48c.07-.08.12,0,.16,0S8.54,13.36,8.49,13.28Zm.06-.55s0,0,0,0S8.55,12.74,8.55,12.73Zm0,.31,0,0,0,0s0,0,0,0l0,0Zm0,0s0,0,0,0S8.56,13,8.56,13Zm0-.22s.06,0,.08.07S8.57,12.86,8.57,12.83Zm.16.45c.07,0,.12,0,.12.06s0,0-.08,0S8.74,13.33,8.73,13.28Zm.1-.22a0,0,0,0,1,0,.07C8.72,13.12,8.8,13,8.83,13.05Zm0-.06s0,0,0,0S8.79,13,8.8,13Zm0,.42s.08.08.08.11S8.73,13.44,8.78,13.41Zm.07-.49s-.06,0-.09-.06.08,0,.05,0S8.91,12.9,8.85,12.92Zm-.05-.27,0,0,0,0,0,0ZM9,13.78c-.08.07-.11,0-.16,0s0-.07.09-.1,0-.08-.06-.13S9,13.45,9,13.4s0,.1.08.14a.64.64,0,0,1-.07.1S9,13.74,9,13.78ZM9,13.38c-.06,0,0-.07,0-.1a.08.08,0,0,1,.11,0S9,13.37,9,13.38Zm0-.29s.08,0,.08,0S9,13.12,9,13.09Zm0-.17s0-.08.06,0S9,12.91,9,12.92Zm0-.2a.06.06,0,0,1,0-.1s0,.08,0,.05S9.05,12.68,9,12.72Zm.14,1.1-.06-.06.08-.07S9.27,13.79,9.18,13.81Zm.08-.23a.07.07,0,0,1-.11,0s0-.05.06-.08l.06.06S9.25,13.58,9.25,13.59Zm0-.16s0-.09-.06-.06,0-.06.05-.09,0,0,.07.05S9.21,13.37,9.23,13.43Zm0-.58s.05.06,0,.07,0,0,0,0S9.26,12.87,9.25,12.85Zm0,.22a.06.06,0,0,1,0,.1C9.18,13.15,9.18,13.07,9.25,13.07Zm.19.74s-.06,0-.08,0a.07.07,0,0,1,.11,0S9.44,13.79,9.45,13.81Zm0-.18-.07-.08.06-.06c.05,0,0,0,.07.08Zm0-.32,0,0c.06.05,0,.09,0,.11S9.4,13.33,9.4,13.31Zm0-.2s.07,0,.07.05S9.44,13.14,9.42,13.11Zm.1-.15s-.06,0-.09,0,0,0,0,0,.05,0,.08,0S9.51,12.94,9.52,13Zm.08.87s0-.08,0-.12a.12.12,0,0,0,0,.08S9.65,13.82,9.6,13.83Zm0-.19s-.06-.06-.05-.09a.07.07,0,0,1,.11,0A.1.1,0,0,1,9.64,13.64Zm0-.22-.06-.06c0-.06.08,0,.12,0Zm0-.29s.1,0,.1,0S9.62,13.18,9.62,13.13Zm.28.68c0,.07-.12,0-.11,0s.07,0,.11,0S9.89,13.83,9.9,13.82Zm0-.16-.06-.07c0-.06.06,0,.1,0S9.9,13.64,9.86,13.66Zm0-.22-.06-.06s0,0,0,0,.07,0,.11,0S9.92,13.42,9.87,13.44Zm0-.22s-.06-.06,0-.11,0,0,.07.05S9.92,13.19,9.88,13.22Zm.2.46s-.06,0-.09-.08.08,0,.1-.09.06.08.05.11Zm0-.32s.06,0,.09,0a.11.11,0,0,1,0,.17S10,13.41,10,13.37Zm.06-.12L10,13.18s0,0,.07-.08,0,0,.07.05S10.14,13.21,10.09,13.25Zm.13.36c.07-.08.13,0,.13,0A.08.08,0,0,1,10.22,13.61Zm.12-.15s0,0,0,0-.06-.06-.05-.09.07,0,.1,0A.06.06,0,0,1,10.34,13.46Zm0-.23s-.08,0-.12,0,0,0,0,0,.07,0,.1,0A0,0,0,0,0,10.37,13.23Zm.16.47s-.07,0-.1-.07.11-.08.16,0S10.57,13.68,10.53,13.7Zm0-.22-.07-.08s0,0,0,0a.09.09,0,0,1,.13.07S10.54,13.45,10.52,13.48Zm0-.28s.07-.06.1,0,0,0,0,.07S10.5,13.22,10.48,13.2Zm.29.31s-.07,0-.09-.08.06,0,.09-.05S10.79,13.47,10.77,13.51Zm-.08-.29s0,0,.07,0,0,.06,0,.1Zm.1-.17s0,0,0,0S10.79,13.05,10.79,13Zm.15.69s0,0,0,0a.06.06,0,0,1,0-.1s0,0,0,0l.06.06Zm.06-.32s0,.06,0,.1a.11.11,0,0,1-.07-.05s0,0,0,0,0,0,0,0S11,13.4,11,13.41Zm0-.13s0,0,0,0h-.06s0,0,0-.07.06,0,.08,0S11,13.27,11,13.28ZM10.92,13s.07,0,.1,0A.06.06,0,0,1,10.92,13Zm.24.72s0,0-.06-.07A0,0,0,1,1,11.17,13.73Zm0-.23a.08.08,0,0,0,0,0s.09,0,.08,0S11.17,13.49,11.14,13.5Zm.05-.07s0,0,0,0S11.2,13.44,11.2,13.43Zm0-.15s0,0,0-.06.06,0,.1,0,0,0,0,0l0,0Zm0-.28s.08,0,0,.06S11.18,13,11.17,13Zm.21.74s0,0-.07-.05.06,0,.09,0S11.38,13.73,11.38,13.75Zm0-.22a.07.07,0,0,1,0-.09s0,0,0,.08S11.38,13.49,11.35,13.53Zm.06-.21s0,0-.07-.05a.1.1,0,0,1,.07,0A.06.06,0,0,1,11.41,13.32Zm0-.22s0-.06,0-.08,0,0,0,.08S11.42,13.07,11.4,13.1Zm.2.57c.09.14-.16,0,0,0Zm0-.12s0-.07,0-.1S11.65,13.53,11.59,13.54Zm0-.23s0,0,0,0h0l0,0Zm0-.24s0,0-.07,0,0,0,.07,0S11.64,13.06,11.66,13.08Zm.12.69a0,0,0,0,1,0-.06l0,0Zm.08-.25,0,0s0,0,0,0S11.88,13.45,11.86,13.52Zm0-.26s0,0,0,0,0,0,0,0l-.05,0S11.83,13.28,11.81,13.26Zm.06-.16s0,0,0,0,0,0,0,0S11.86,13.1,11.87,13.09Zm.14.67c0-.06.09-.05,0,0Zm0-.24s0,0,0,0S12,13.53,12,13.53Zm0-.19,0,0,0,0S12.07,13.33,12,13.33Zm0-.24s0,0,0,0A0,0,0,0,1,12.08,13.1Zm.15.69c-.05,0,0-.09,0,0Zm0-.21c0-.08.08,0,0,0Zm.07-.2-.08,0,.06-.05S12.31,13.33,12.31,13.37Zm0-.23s0,0,0,0,0,0,0-.06S12.3,13.12,12.32,13.14Zm.15.66,0,0,0,0,0,0Zm0-.24.05,0c.05,0,0,0,0,.07S12.45,13.59,12.43,13.55Zm0-.21s0,0,0,0S12.46,13.35,12.47,13.34Zm0,0s0,0,0,0S12.5,13.32,12.5,13.32Zm0-.17,0,0s0,0,.06,0Zm.17.66,0,0,0,0,0,0Zm0-.25s0,0,0,0S12.66,13.56,12.66,13.56Zm0-.2s0,0,0,0S12.69,13.36,12.69,13.35Zm0-.2s0,0,0,0,0,0,0,0,0,0,0-.07,0,0,0,0,0,0,0,0S12.67,13.12,12.72,13.15Zm.16.7,0-.05s.06-.07.11,0S12.9,13.82,12.87,13.85Zm0-.25s0,0,0,0S12.91,13.59,12.9,13.6Zm0-.23s0,0,0,0S12.88,13.37,12.88,13.37Zm.07-.31s0,0,0,0S12.95,13.07,13,13.06Zm.17.12s0,0,0,0S13.12,13.19,13.12,13.18Zm0,.19s0,0,0,0S13.13,13.38,13.13,13.37Zm.19.47s0,0,0,0S13.33,13.83,13.32,13.84Zm0-.65s0,0,0,0A0,0,0,0,1,13.36,13.2Zm.15.64s0,0,0,0S13.52,13.84,13.51,13.83Zm.05-.2s0,0,0,0S13.57,13.63,13.56,13.63Zm0-.22c0-.05.07,0,.11,0A.07.07,0,0,1,13.53,13.41Zm.05-.2s0,0,0,0S13.58,13.2,13.58,13.21Zm0-.11s0,0,0,0S13.54,13.11,13.55,13.1Zm0,.13s0,0,0,0S13.57,13.24,13.58,13.23Zm0-.2s0,0,.06,0S13.56,13.06,13.54,13Zm.19.81s0,0,0,0S13.73,13.86,13.73,13.85Zm0-.18,0,0,0,0,0,0Zm0-.66s0,0,0,0S13.79,13,13.79,13Zm.21.74s0,0,0-.06,0,0,0,0a.09.09,0,0,0,.06,0S14,13.71,14,13.75Zm0-.32s0,0,0,0S14,13.44,14,13.43Zm0-.18s0,0,0,0S14,13.26,14,13.25Zm.41,0s0,0,0,0S14.43,13.26,14.43,13.26Zm0-.19,0,0,0,0,0,0Zm.18.41s0,0,0,0S14.62,13.48,14.62,13.48Zm0-.22s0,0,0,0S14.65,13.27,14.64,13.26ZM14.06,13l0,0,0,0,0,0H10.78s0,0,0,.06,0,0,0,0l0,0H10.6s-.08.06-.11,0h-.13v0s0,0-.07,0a.08.08,0,0,1,0,0h-.11s-.08,0-.12,0H10l-.05,0s-.05,0-.08-.06l-.14,0,0,0a0,0,0,0,1-.07,0h0A2,2,0,0,1,9,12.58a.79.79,0,0,1-.16-.16.77.77,0,0,1-.16.16l-.07,0h0l-.06.06h0a1.72,1.72,0,0,1-.87.3v0s0,0,.07,0-.06,0-.09.06L7.67,13l0,0H7.55l0,0-.07.06s0,0-.06,0l0,0H7.38l-.09.08L7.21,13H7.16a.14.14,0,0,1-.09.07L7,13h-.1l-.05,0s0,0,0,0v0H6.66l0,0,0,0H5.79a.16.16,0,0,0,.06.12c-.13.06-.07.14,0,.22l-.08.07s-.09-.07-.14-.08,0,.06-.08.09,0,.07.05.11-.11,0-.07.1,0-.07-.09-.1a.33.33,0,0,1,.09-.1c-.06-.05-.05-.09-.1-.12l.1-.09a.22.22,0,0,1,.09.1s.09-.06.13-.09a.17.17,0,0,0-.06-.12.31.31,0,0,1,.09-.1H5.15l0,.05a.41.41,0,0,1-.08.12l.06.13c-.05,0,0,.06-.08.09a.17.17,0,0,0,.06.12s-.09.05-.07.08S5,13.5,5,13.48s0,0,.08-.09S5,13.29,5,13.24l.08-.07c0-.07-.05-.09-.07-.14A.09.09,0,0,0,5.08,13H5l0,0a.21.21,0,0,1-.09.13s.08.08.08.11-.12.05-.18,0l.09-.08s-.06-.08-.07-.12L4.87,13H4.73l0,0s0,.06-.08.09.06.08.07.13-.05.09-.08.07-.06,0-.09-.08.08-.14,0-.22l0,0H4.52l0,0s-.08.07-.08.09-.05,0-.09-.1l0,0H4.32v0a.1.1,0,0,1-.12,0,.16.16,0,0,1,0-.06H4.09S4,13,4,13a.06.06,0,0,1,0,0H3.89L3.82,13s0,0-.07-.05H3.67a.18.18,0,0,0-.08.07l0-.07H3.42a.19.19,0,0,1,0,.06.16.16,0,0,1,0-.06H3s-.06.07,0,.14-.06.07-.08.14a.11.11,0,0,1,.07.05c0,.07-.08.12-.13,0s.06-.08.08-.12a.58.58,0,0,0-.1-.12s.06,0,.1-.07,0-.11,0-.16l.1,0s0,.08,0,.05A.15.15,0,0,1,3,13l.1,0h0s0,0,0,0a.06.06,0,0,1,.06,0l.19-.12a.07.07,0,0,1,0,0c0-.05.05-.06.1-.07a.07.07,0,0,1,0,0l.15-.13a.07.07,0,0,1,0-.05l.06-.06s0,0,0,0h0a.72.72,0,0,0,.16-.33.07.07,0,0,1,0-.06s0,0,0,0,0-.86,0-1.78h0V10h0V9.72h0V9.49h0V9.19h0V8.53h0V8.35h0s0,0,0,0h0V6a.88.88,0,0,0-.56-.7,0,0,0,0,1,0,0A2.07,2.07,0,0,0,3,5.16H6.08s-.06-.07,0-.1.08.07,0,.1H7.53a1.69,1.69,0,0,1,.7.15h0v0h0a1.61,1.61,0,0,1,.49.37l.13.16L9,5.69l.08-.08h0s0-.07.05,0a1.6,1.6,0,0,1,1.08-.42s0,0,0,0H11l0,0s0,0,0,0h.15a.08.08,0,0,1,.07,0l0,0h.12a.07.07,0,0,1,.13,0h.09l0,0s0,0,0,0h3.06a2,2,0,0,0-.26.1l0,0h0l-.21.13s0,0,0,.07,0,0-.06,0a.08.08,0,0,1,0-.07,1,1,0,0,0-.22.21s0,0,0,0,0,.08,0,.08,0,0,0,0,0,0,0,0h0a.58.58,0,0,0-.11.33V7.78h0v3h0s0,0,0,0v.79h0v.26a.08.08,0,0,1,.12,0s0,0,0,0,0,0,0,0-.06,0-.09-.05v.13c0,.57.88.93.88.93Zm-8.6.09L5.55,13l.08.09c-.06,0,0,.07-.09.1A.33.33,0,0,0,5.46,13.08ZM3.26,5.48s0,0,0,0S3.26,5.48,3.26,5.48Zm0,.26s0,0,0,0S3.29,5.72,3.29,5.73Zm0,.17,0,0s0,0-.06,0Zm.17,0,0,0,0,0,0,0Zm0-.38s0,0,0,0S3.44,5.56,3.44,5.55Zm0,.61s0,0,0,0S3.46,6.16,3.46,6.16Zm0,.22s0,0,0,0S3.47,6.36,3.48,6.37Zm0,.13.07.07s0,.06,0,.1l-.09-.1Zm.09.93,0,0,0,0,0,0Zm0-.13s0,0,0,0S3.53,7.31,3.53,7.31Zm.24,3.31s0,0,0-.06S3.82,10.58,3.77,10.62Zm0-3.32a0,0,0,0,1,0,0S3.76,7.31,3.75,7.3Zm0,2.84s0,0,0,0S3.78,10.14,3.78,10.14Zm0,1.28s-.07,0,0,0l0,0S3.76,11.41,3.77,11.42Zm-.33,1.15s0,0,0,0l-.06-.06s.08-.09.08-.14-.11-.13,0-.18l.08.09s-.07.07-.07.1S3.51,12.51,3.43,12.56Zm-.27,0s0,.1.08.14,0,0-.08,0,0-.08,0-.12S3.18,12.62,3.17,12.59Zm0,0s0-.07,0-.1l.07,0c0,.05,0,0,0,.08S3.22,12.52,3.19,12.55Zm0-2.72s0,0,0,0S3.22,9.82,3.22,9.83Zm0-.23s0,0,0,0S3.18,9.61,3.19,9.6Zm0,2.22,0,0,0,0,0,0Zm0-.23s0,0,0,0S3.21,11.59,3.21,11.58Zm0,.48s0,0,0,0S3.27,12,3.25,12.07Zm0,.24s-.05,0-.09,0,0-.05,0-.08S3.23,12.27,3.26,12.31Zm-.09-2.23s0,0,0,0,0-.09,0,0S3.18,10.09,3.17,10.08Zm0,.59c.05,0,0,.09,0,0Zm.11,1,0,0,0,0,0,0A.08.08,0,0,1,3.27,11.65Zm0-.89s0,0,0,0,0,0,0,0Zm0,.24s0,0,0,0S3.32,11,3.31,11Zm0-2.83s0,0,0,0S3.29,8.16,3.29,8.17Zm0,.82s0,0,0,0S3.28,9,3.28,9Zm0-1.06s0,0,0,0S3.25,7.93,3.26,7.93Zm0-1.33,0,0,0,0,0,0Zm0,.2s0,0,0,0S3.26,6.8,3.26,6.8Zm0,.42s0,0,0,0S3.24,7.22,3.24,7.22Zm0,.19,0,0,0,0,0,0Zm0,.22c.07,0-.07,0,0,0Zm0,.47s0,0,0,0S3.24,8.1,3.24,8.1Zm0-.19s0,0,0,0S3.22,7.92,3.22,7.91Zm.06,3.46s0,0,0,0S3.26,11.37,3.27,11.37Zm0-.16s0-.07.06,0,0,0,0,0S3.3,11.2,3.27,11.21Zm0-.88s0,0,0,0S3.32,10.34,3.32,10.33Zm.14-3.08a.06.06,0,0,1-.07-.05S3.43,7.24,3.46,7.25Zm0-.26s0,0,0,0S3.41,7,3.41,7Zm0,2.66,0,0,0,0,0,0Zm0-.19s0,0,0,0S3.37,9.46,3.37,9.46Zm.1-.87s0,0,0,0S3.45,8.59,3.46,8.58Zm0,.28s0,0,0,0S3.45,8.85,3.46,8.86Zm0-1.41s0,0,0,0S3.43,7.45,3.43,7.44Zm0,1.08s0,0,0,0S3.44,8.52,3.44,8.53Zm0,.47,0,0-.05,0,0,0Zm0,.18s0,0,0,0S3.44,9.17,3.45,9.18Zm0,.06s0,0,0,0S3.45,9.24,3.45,9.24Zm0,2.56s0,.06,0,.09,0,0-.06,0Zm0-2.32s0,0,0,0S3.45,9.48,3.44,9.48Zm0,.12s0,0,0,0S3.43,9.59,3.43,9.6Zm0,1.32s0,0,0,0S3.41,10.92,3.41,10.92Zm0-.2s0,0,0,0S3.39,10.71,3.4,10.72ZM3.48,12a.07.07,0,0,1-.06.06s0,0,0-.06S3.45,12,3.48,12Zm0-.42s0,0,0,0S3.46,11.63,3.45,11.62Zm0-3.27s0,0,0,0S3.48,8.36,3.47,8.35Zm0-.42s0,0,0,0S3.5,7.94,3.48,7.93Zm0-.21s0,0,0-.06,0,0,0,0S3.48,7.68,3.46,7.72Zm0-.07s0,0,0,0S3.47,7.66,3.47,7.65Zm0-.86s0,0,0,0S3.49,6.8,3.49,6.79Zm0,0s0,0,0,0S3.46,6.78,3.46,6.77Zm0,.25s0,0,0,0S3.47,7,3.47,7Zm0,2.4s-.06,0-.08,0S3.4,9.4,3.43,9.42Zm-.07.51s0,0,0,0S3.35,9.93,3.36,9.94Zm.13.61s0,0,.06,0S3.5,10.59,3.49,10.55Zm.06.69s0,0,0,0S3.55,11.24,3.55,11.24Zm0-.28s0,0,0,0S3.53,11,3.53,11Zm0-.18s0,0,0,0S3.53,10.79,3.53,10.78Zm0-.46s0,0,0,0S3.55,10.33,3.54,10.32Zm.11,1.92a.11.11,0,0,1,0,.08c-.07,0-.08,0-.13,0ZM3.7,6.16c-.09,0,0-.09,0,0Zm0,.41s0,0,0,0S3.67,6.56,3.67,6.57Zm0,3.09s-.09,0,0-.06,0,0,0,0,0,0,0,0S3.66,9.64,3.67,9.65Zm0-.83s0,0,0,0S3.64,8.83,3.63,8.82Zm0,.36s0,0,0,0S3.64,9.18,3.64,9.18Zm0-.62,0,.05S3.59,8.59,3.65,8.56Zm0-.91s0,0,.06,0S3.62,7.7,3.63,7.65Zm0,.88,0,0,0,0,0,0Zm0-.63s0,0,0,0S3.65,7.9,3.66,7.91Zm0,.87,0,0,0,0,0,0Zm0-.85s0,0,0,0A0,0,0,0,1,3.71,7.93Zm0,.47s0,0,0,0S3.7,8.39,3.72,8.41Zm0-.67s0,0,0,0S3.68,7.74,3.68,7.74Zm0-1.39s0,0,0,0S3.7,6.34,3.7,6.35ZM3.7,7s0,0,0,0S3.7,7,3.7,7Zm0,.25s0,0,0,0S3.67,7.24,3.68,7.24Zm0,.2a0,0,0,0,1-.07,0S3.67,7.41,3.69,7.45ZM3.63,8.72s0,0,0,0S3.62,8.73,3.63,8.72Zm0,.34s0,0,0,0S3.64,9.06,3.64,9.06Zm0,.19s0,0,0,0S3.64,9.24,3.62,9.26Zm0,.21s0,0,0,0S3.63,9.45,3.64,9.46Zm0,.21s0,0,0,0A0,0,0,0,1,3.61,9.68Zm0,.35,0,0s0,0-.06,0S3.62,10,3.63,10Zm0,1.83s0,0,0,0S3.66,11.85,3.65,11.85Zm0,.19a0,0,0,0,1,0,.07S3.63,12.07,3.66,12Zm0-.18s0,0,0,0S3.68,11.87,3.69,11.87Zm0-.23s0,0,.07,0S3.63,11.71,3.64,11.64Zm.06-.39s0,0,0,0S3.72,11.24,3.7,11.24Zm0,.22s0,0,0,0S3.72,11.45,3.71,11.46Zm0-.43c0-.06.09-.05,0,0Zm0-.26-.05,0,0,0,.05,0Zm0-3s0,0,0,0S3.71,7.78,3.71,7.78Zm0-2,0,0,0,0S3.74,5.71,3.7,5.74Zm0,.17s0,0,0,0,0,0,0,0l0,0Zm0,.9s0,0,0,0S3.68,6.8,3.67,6.81Zm0,.23s0,0,0,0S3.66,7,3.68,7Zm-.06-.8,0,0,0,0,0,0Zm0,3.58s0,0,0,0S3.6,9.82,3.6,9.82Zm0,.08,0,0,0,0,0,0Zm0,.17,0,0,0,0,0,0Zm-.21-3s0,0,0-.06S3.43,7.08,3.36,7.09Zm0,.41s0,0,0,0S3.33,7.49,3.33,7.5Zm0,3s0,0,0,0S3.31,10.52,3.31,10.53ZM3.23,5.69s0,0,0,0S3.23,5.7,3.23,5.69Zm0,0s0,0,0,0S3.2,5.68,3.21,5.67Zm0,2.79s0,.05,0,.07S3.17,8.49,3.21,8.46Zm0,.14s0,0,0,0S3.21,8.61,3.21,8.6Zm0,.15s0,0,0,0S3.22,8.75,3.23,8.75Zm0-.18s0,0,0,0S3.21,8.57,3.21,8.58Zm0,.25s0,0,0,0S3.21,8.82,3.21,8.83Zm0,.16,0,0,0,0,0,0Zm0,.25s0,0,0,0S3.2,9.23,3.2,9.24Zm0,.13s0,0,.06.06,0,0,0,0h0S3.15,9.39,3.18,9.37Zm0,.29s0,0,0,0S3.19,9.66,3.19,9.66Zm0,.22a.08.08,0,0,1-.1,0A.08.08,0,0,1,3.22,9.88ZM3.14,11s0,0,0,0S3.15,11,3.14,11Zm.67-1.75s0,0,0,0S3.81,9.22,3.81,9.21Zm10.82,2.12s0,0-.07-.05,0,0,.06,0,0,0,0,.06S14.62,11.31,14.63,11.33Zm-.19-1.1,0,0,0,0,0,0Zm0,1.31s0,0,0,0S14.45,11.53,14.46,11.54Zm0-4.59s0,0,0,0,0,.07-.07,0S14.49,7,14.47,6.95Zm0,.69s0,0,0,0S14.49,7.64,14.47,7.64Zm0,.21,0,0,0,0,0,0Zm0-.42s0,0,0,0S14.5,7.43,14.5,7.42Zm0-.66s0,0,0,0S14.5,6.76,14.5,6.76Zm0-1.1c.06,0,0,.07,0,0S14.5,5.67,14.51,5.66Zm-.05,4.12s0,0,0,0S14.45,9.79,14.45,9.78Zm0-.64s0,0,0,0S14.46,9.15,14.46,9.14Zm0,.41s0,0,0,0S14.47,9.56,14.48,9.55Zm0-.19s0,0,0,0S14.52,9.36,14.52,9.36Zm0-.23s0,0,0,0S14.5,9.14,14.5,9.13Zm0,3s0,0,0,0S14.52,12.17,14.53,12.18Zm0-3.24,0,0v0s-.06-.05,0,0h0l0,0,0,0Zm0-2.62s0,0,0,0S14.52,6.33,14.51,6.32Zm0-.22s0,0,0,0S14.51,6.11,14.51,6.11Zm0-.22s0,0,0,0S14.53,5.9,14.51,5.89Zm0-.46s0,0,.07,0S14.52,5.45,14.5,5.43Zm.07,2.85s0,0,0,0S14.58,8.27,14.57,8.28Zm0,3.25s0,0,0,0S14.58,11.52,14.58,11.53Zm0-3.48s0,0,0,0S14.6,8,14.6,8.05Zm0-.22s0,0,0,0S14.59,7.84,14.59,7.83Zm.06,1.75s0,0,0,0S14.66,9.6,14.65,9.59Zm0,1.09s0,0,0,0S14.69,10.67,14.69,10.67Zm0-.64s.06,0,0-.07a.06.06,0,0,1,.07.05Zm.05-4.14s0,0,0,0S14.73,5.9,14.73,5.89Zm0,.42s0,0,0,0S14.76,6.31,14.76,6.31Zm0-.65s0,0,0,0S14.72,5.67,14.72,5.66Zm0,.45s0,0,0,0S14.73,6.1,14.73,6.11Zm0,.82,0,0,0,0,0,0Zm0,2.65s0,0,0,0S14.73,9.58,14.73,9.58Zm0-1.3s0,0,0,0S14.7,8.28,14.69,8.28Zm0-.22s0,0,0,0S14.72,8.07,14.72,8.06Zm0,1.29s0,0,0,0S14.71,9.35,14.71,9.35Zm0-.43s0,0,0,0S14.74,8.93,14.74,8.92Zm0-.21s0,0,0,0S14.74,8.72,14.74,8.71Zm0-.23s0,0,0,0S14.75,8.49,14.75,8.49Zm0-2.93s0,0,0-.07A.07.07,0,0,1,14.76,5.56Zm0-.1,0,0s0,0,0,.06S14.75,5.47,14.74,5.46Zm0-.17a.07.07,0,0,1,0-.11l0,0S14.79,5.26,14.74,5.29Zm-.47,2s0,0,0,0S14.27,7.31,14.27,7.31Zm0,.76s0,0,0,0S14.3,8.06,14.3,8.07Zm0-1.31s0,0,0,0S14.29,6.76,14.28,6.75Zm0-.61s0,0,0,0S14.33,6.13,14.33,6.14Zm0-.25c0-.07,0,.07,0,0Zm0,.66s0,0,0,0S14.31,6.54,14.32,6.55Zm0,5.83s0,0,0,0S14.33,12.37,14.33,12.38Zm0-.44s0,0,0,0S14.31,12,14.31,11.94Zm0-6.29h0s0,0,0,0h0l0,0S14.31,5.67,14.29,5.66Zm.07,5.65s0,0,0,0S14.36,11.3,14.36,11.31Zm-.19-.94,0,0,0,.05,0,0Zm0,.27c-.08,0,0-.08,0,0Zm0-3.49s0,0,0,0S14.2,7.15,14.19,7.14Zm.06,2s0,0,0,0S14.24,9.13,14.24,9.14Zm0,1a.07.07,0,0,1,0,.11A.07.07,0,0,1,14.21,10.15Zm0-.57s0,0,0,0S14.23,9.59,14.23,9.58Zm0-.89s0,0,0,0S14.24,8.7,14.24,8.69Zm0-.43s0,0,0,0S14.25,8.26,14.25,8.26ZM14,10.19s0,0,0,0,.06,0,.08,0,0,0,0,0S14,10.24,14,10.19Zm0,.2s0,0,0,0S14,10.38,14,10.39ZM14.14,6l0,0,0,0s0,0,0-.06,0,0,0,0S14.12,6,14.14,6Zm0,2.22s0,0,0,0S14.13,8.24,14.13,8.24Zm0,3.06s0,0,0,0S14.16,11.28,14.15,11.29Zm0-5.23s0,0,0,0S14.14,6.06,14.14,6.06Zm-.07.25s0,0,0,0S14.09,6.32,14.07,6.32Zm0,.22s0,0,0,0S14.1,6.53,14.1,6.53Zm0-.44s0,0,0,0S14.07,6.11,14.08,6.1Zm0,.82,0,0,0,0S14,6.95,14.09,6.92Zm0,1.75s0,0,0,0S14.12,8.66,14.12,8.67Zm-.06-.85s0,0,0,0S14.06,7.83,14.06,7.82Zm0,.19s0,0,0,0S14.08,8,14.08,8Zm0-.4s0,0,0,0S14.06,7.62,14.05,7.62Zm0,.84,0,0,0,0,0,0Zm0,.26s-.06-.05,0-.07S14,8.7,14,8.72Zm0,.63s0,0,0,0S14,9.35,14,9.35ZM14,10s0,0,0,0A0,0,0,0,1,14,10Zm0-.43s0,0,0,0S14,9.53,14,9.52Zm0-.22s0,0,0,0S14.05,9.32,14,9.31Zm0-.2s0,0,0,0S14.06,9.11,14.07,9.1Zm0,3s0,0,0,0S14.1,12.14,14.1,12.15Zm0-.23s0,0,0,0A0,0,0,0,1,14.1,11.92Zm.05-.41c-.08,0,0-.08,0,0Zm.69-1.1s0,0,0,0S14.86,10.42,14.85,10.41Zm0-.13s0,0,0,0S14.84,10.29,14.84,10.28Zm0,0s0,0,0,0S14.86,10.24,14.85,10.23Zm0-.19s0,0,0,0S14.86,10,14.86,10Zm0-.19s0,0,0,0S14.88,9.85,14.87,9.85Zm.06-1.56,0,0,0,0,0,0Zm0-.66s0,0,0,0S14.92,7.63,14.93,7.62Zm0,5s0,0,0,0S14.92,12.66,14.92,12.65Zm0-3.48s0,0,0,0S14.92,9.18,14.92,9.17Zm0-.44c-.06,0-.06-.09,0,0Zm0-1.51,0,0,0,0,0,0Zm0-.23s0,0,0,0S14.94,7,14.94,7Zm0-.66s0,0,0,0S15,6.34,14.94,6.33Zm.06,2s0,0,0,0S15,8.3,15,8.31Zm0,3.25s0,0,0,0S15,11.55,15,11.56Zm0,.22c-.08,0,0-.08,0,0Zm0,1.74s0,0,0,0S15.06,13.53,15,13.52Zm0,.28s0,0,.05-.07S15.12,13.77,15.08,13.8Zm.06-1.16s0,0,0,0S15.14,12.63,15.14,12.64Zm0-.18s0,0,0,0S15.12,12.46,15.12,12.46Zm0,.4s0,0,0,0S15.16,12.84,15.15,12.86Zm0-.44s0,0,0,0S15.14,12.43,15.13,12.42Zm0-2.1s0-.06-.06,0,.06,0,.1,0S15.16,10.3,15.13,10.32Zm0-1.35s0,0,0,0S15.15,9,15.15,9Zm0-.46h0s0,0,0,0h0S15.18,8.52,15.18,8.51Zm0,3.07s0,0,0,0S15.23,11.57,15.21,11.58Zm0-3.49s0,0,0,0S15.2,8.1,15.2,8.09Zm.07,2.13s0,0,0,0,0,0-.05.07l0-.05Zm.06.25s0,0,0,0S15.33,10.46,15.33,10.47Zm0,.25s0,0,0,0S15.3,10.71,15.3,10.72ZM15.22,12s0,0,0,0S15.22,12,15.22,12Zm.07-1c-.09,0,0-.1,0,0Zm0,2.85s0-.06,0-.08l0,0Zm0-.28c.08,0,0,.08,0,0Zm.05-.23,0-.05.05,0S15.39,13.27,15.32,13.29Zm0-.63s0,0,0,0S15.34,12.67,15.34,12.67Zm0-.22s0,0,0,0S15.36,12.46,15.36,12.45Zm0,0s0,0,0,0S15.38,12.48,15.38,12.48Zm0-.69s0,0,0,0S15.4,11.8,15.39,11.79Zm0-.19s0,0,0,0S15.4,11.6,15.4,11.6Zm0-6s0,0,0-.07,0-.07.06-.11,0,.1,0,.08,0,0,0,0Zm.08,8.21,0,0a.06.06,0,0,1,.12,0S15.5,13.81,15.47,13.82Zm.07-.44,0-.05s0,0,.06-.06S15.59,13.35,15.54,13.38Zm0-.89,0,0,0,0,0,0Zm0-.24s0,0,0,0S15.59,12.26,15.59,12.25Zm0-3.07s0,0,0,0S15.59,9.19,15.58,9.18Zm0-.45a.05.05,0,0,1,.06,0S15.62,8.76,15.6,8.74Zm0-3.21c.05,0,0,.09,0,0l0,0s0,0,0-.07a.06.06,0,0,1,.1,0Zm0,.37s0,0,0,0S15.63,5.89,15.63,5.9Zm0-.22s0,0,0,0S15.59,5.68,15.59,5.68Zm.1-.83a.06.06,0,0,1-.1,0C15.59,4.75,15.68,4.79,15.69,4.85ZM15.58,5s0,0,.07,0,0,.12-.06.11S15.58,5,15.58,5Zm0,.29c-.06,0,0,0,0-.07S15.66,5.25,15.62,5.29Zm0,.83a0,0,0,0,1-.07,0S15.62,6.08,15.64,6.13Zm0-1.8c.06,0,.1.06,0,.12S15.53,4.37,15.61,4.33Z"/><path class="cls-2" d="M8.36,11.43h0A1.35,1.35,0,0,0,8.45,11h0a1,1,0,0,0,0-.26,1.42,1.42,0,0,0-.3-.49h0l0,0h0s0,0,0,0h0a1.25,1.25,0,0,0-.51-.33.73.73,0,0,0-.89.24.07.07,0,0,1,0,0h0l-.06.1a.35.35,0,0,0,0,.27h0l0,0h0a.48.48,0,0,0,.36.25l.06,0s0,0,0,0a0,0,0,0,1,0,0,.61.61,0,0,0,.19,0s0,0,0,0a1.11,1.11,0,0,0,.29-.21s-.06.89-1.18.79a.89.89,0,0,1-.71-.59s0,0-.07,0l0,0a.9.9,0,0,1,0-.61v0h0A1.77,1.77,0,0,1,6,9.65s0-.07,0,0H6a1.9,1.9,0,0,1,.23-.22h0s0,0,0,0c.2-.17.38-.24.4-.32V9c0-.14-.57-.27-.88-.92a1,1,0,0,1-.07-.21h0a.87.87,0,0,1,.65-1h.15l0,0,0,0a1.29,1.29,0,0,1,.82.23h0l.11.08a.66.66,0,0,1,.21.42h0l0,0,0,0,0,0,0,0L7.58,7.5v0a0,0,0,0,1,0,0h0l-.11-.07a.85.85,0,0,0-.63-.06.41.41,0,0,0-.11.07h0s0,.06,0,.08,0,0,0,0,0,0-.07,0a.38.38,0,0,0-.07.2h0a.36.36,0,0,0,0,.15.73.73,0,0,0,1,.39,1.39,1.39,0,0,0,.88-1h0a1.78,1.78,0,0,1,0-.19.66.66,0,0,0,0-.12v0s0,0,0,0c-.11-.38-.39-.93-1-.93H7a.12.12,0,0,1,0,.14s0-.09,0-.14h-.2s0,.06,0,.07,0,0,0-.07H6.07a0,0,0,0,1,0,0s0,0,0,0l0,0H5.87s0,0,0,0h0s0,0,0,.07-.08,0-.05-.07H5.46s0,0,0,.06,0,0,0-.06H5.24s0,0,0,0,0,0-.06,0,0,0,0,0,0,0,0,0H5L5,6S5,6,5,5.94H4.88v5.73a.46.46,0,0,0,.06.23l0,0C5,11.92,5,12,5,12a.9.9,0,0,0,.35.22.07.07,0,0,1,0-.06s.05,0,.07.08H6s0-.05,0-.05,0,0,0,0v0h.38a.06.06,0,0,0,0,0,.1.1,0,0,1,.09,0H7.6C7.89,12.25,8.21,11.85,8.36,11.43Zm0-.66s0,0,0,0S8.36,10.78,8.36,10.78Zm-.24.44s0,0,0,0S8.13,11.23,8.13,11.22Zm0,.21s0,0,0,0S8.13,11.43,8.13,11.42Zm.11.07s0,0,0,0S8.24,11.5,8.24,11.49Zm.09-.83s0,0,0,0S8.32,10.66,8.33,10.67Zm0,.36s0,.08,0,.11l-.06-.06Zm-.14,0,0,0,0,0,0,0Zm0-.66s0,0,0,0S8.17,10.35,8.17,10.35Zm0,.08s0,0,0,0S8.13,10.43,8.13,10.44Zm-1.54-.08a.05.05,0,0,1,0-.06S6.63,10.35,6.59,10.35Zm0,.17s0,0,0,0S6.62,10.53,6.62,10.52Zm.19.05s0,0,0,0S6.81,10.57,6.81,10.57Zm0-.22s0,0,0,0S6.83,10.35,6.82,10.36Zm0-.23s0,0,0,0S6.82,10.13,6.82,10.13Zm0,.41s0,0,0,0S6.85,10.54,6.85,10.54Zm0-.43s0,0,0,0S6.87,10.11,6.86,10.1Zm.17.49s0,0,0,0S7,10.58,7,10.59Zm0,0s0,0,0,0S7.05,10.56,7.05,10.55Zm.48-.66s0,0,0,0S7.53,9.89,7.53,9.9Zm0,.06s0,0,0,0S7.51,10,7.51,10Zm-.21,0s0,0,0,0S7.3,9.93,7.3,9.93Zm0,.18s0,0,0,0S7.31,10.1,7.31,10.11Zm-.05-.18s0,0,0,0S7.27,9.94,7.26,9.93Zm0-.06c.05,0,0,.09,0,0Zm-.19.44s0,0,0,0S7.08,10.32,7.08,10.31Zm.14.06s0,0,0-.07l0,0s0,0,0,0,0,0,0,0S7.23,10.36,7.22,10.37Zm.09.22s0,0,0-.06S7.36,10.58,7.31,10.59Zm.16-.43s0,0,0,0S7.47,10.17,7.46,10.16Zm.05.18s0,0,0,0S7.53,10.33,7.51,10.34Zm0,.21,0,0,0,0S7.52,10.59,7.5,10.55ZM6.23,9.24c0-.08,0-.07,0,0Zm.23,0h0s0,0,0,0Zm0-.25c0,.06-.08.06,0,0Zm-.18-.2s0,0,0,0S6.28,8.78,6.29,8.79ZM6.22,9h0s0,0,0,0h0S6.22,9,6.22,9ZM6,9.42s0,0,0,0S6,9.41,6,9.42Zm0-.67,0,0,0,0s0,0,0,0S6,8.75,6.07,8.75Zm0,0s0,0,0,0S6,8.78,6,8.79Zm0,.42s0,0,0,0S6,9.2,6,9.21ZM5.81,9s0,0,0,0S5.82,9,5.81,9Zm0-.4s0,0,0,0S5.81,8.56,5.81,8.56Zm0,.11s0,0,0,0S5.85,8.66,5.84,8.66Zm0-.13s0,0,0,0S5.86,8.52,5.86,8.53Zm0-.2,0,0,0,0,0,0Zm0,.86s0,0,0,0S5.81,9.18,5.82,9.19Zm-.05.41s0,0,0,0A0,0,0,0,1,5.77,9.6Zm0,.21s0,0,0,0,0,0,0,0,0,0,0,0A.05.05,0,0,1,5.8,9.8Zm.88-1.87,0,0,0,0,0,0Zm0-.19s0,0,0,0S6.71,7.73,6.7,7.74Zm0,.23s0,0,0,0S6.73,8,6.73,8Zm.06-.21,0,0,0,0,0,0Zm.36-.22s0,0,0,0S7.15,7.53,7.15,7.54Zm-.23.62s0,0-.06,0,0,0,0,0S6.86,8.13,6.92,8.16ZM7,7.52s0,0,0,0S7,7.52,7,7.52ZM7.07,8l0,0,0,0,0,0Zm.05-.24s0,0,0,0S7.12,7.74,7.12,7.73Zm0-.13s0,0,0,0S7.16,7.58,7.14,7.6Zm0,.59s0,0,0,0S7.17,8.2,7.17,8.2Zm0-.19,0,0,0,0,0,0Zm.27-.24s0,0,0,0S7.46,7.76,7.46,7.77Zm0-.22s0,0,0,0S7.45,7.54,7.45,7.55Zm-.11.6s0,0,0,0S7.34,8.14,7.33,8.15Zm.09.13s0-.06-.05-.09.07,0,.1,0Zm.12-.52,0,0,0,0,0,0ZM7.62,8s0,0,0,0S7.62,8,7.62,8Zm0-.23s0,0,0,0S7.62,7.79,7.63,7.78Zm.09-.85s0,0,0,0S7.73,6.92,7.72,6.93Zm.23-.18s0-.09,0-.08S8,6.73,7.95,6.75Zm0,.78s0,0,0,0S8,7.54,8,7.53Zm0-.22s0,0,0,0S8,7.32,8,7.31Zm0-.66s0,0,0,0S8,6.66,8,6.65Zm.07,1.19s0,0,0,0S8.08,7.85,8.07,7.85Zm0-.43s0,0,0-.06S8.13,7.4,8.07,7.41Zm.08,0,0,0,0,0,0,0ZM8.38,7s0,0,0,0S8.38,7,8.38,7Zm-.12.64c.08,0,0,.08,0,0Zm0-.5s0,0,0,0S8.26,7.11,8.27,7.1Zm0,0s0,0,0,0S8.24,7.1,8.23,7.11Zm0-.24s0,0,0,0S8.23,6.86,8.23,6.87Zm0,.43s0,0,0,0S8.22,7.3,8.23,7.3Zm-.06-.15s0,0,0,0S8.17,7.16,8.16,7.15Zm0-.64s0,0,0,0S8.16,6.52,8.17,6.51Zm0,.46c-.08,0,0-.08,0,0Zm0,.21s-.06,0-.08,0S8.13,7.14,8.16,7.18ZM8,6.18l.06.06,0,0S8,6.22,8,6.18ZM8,6.25c.06,0,.06.09,0,0Zm0,.27s0,0,0,0S8,6.5,8,6.51Zm0,.47s0,0,0,0S8,7,7.92,7Zm0,.35,0,0,0,0,0,0Zm0,.27s0,0,0,0S7.88,7.6,7.88,7.6Zm-.09-.09s0,0,0,0S7.79,7.52,7.79,7.51Zm0-.69s0,0,0,0S7.74,6.84,7.79,6.83Zm0-.79s0,0,0,0l0,0S7.76,6.06,7.78,6Zm0,.66,0,0C7.66,6.71,7.73,6.65,7.75,6.7Zm0,.44s0,0,0,0S7.69,7.14,7.7,7.15Zm0,0,0,0,0,0,0,0Zm0,.21s0,0,0,0l0,0S7.66,7.32,7.68,7.35ZM7.6,6.44s0,0,0,0S7.6,6.43,7.6,6.44Zm0,.43s0,0,0,0S7.58,6.87,7.57,6.87Zm0-.82s0,0,0,0S7.55,6,7.56,6Zm0,.43s0,0,0,0S7.52,6.47,7.53,6.48Zm-.06.64s0,0,0,0S7.46,7.13,7.48,7.12Zm-.11-.31c.07,0-.07,0,0,0Zm0-.6s0,0,0,0S7.38,6.2,7.38,6.21Zm0,.43s0,0,0,0S7.37,6.63,7.37,6.64Zm-.24,0s0,0,0,0S7.14,6.64,7.13,6.64Zm0-.2s0,0,0,0S7.14,6.44,7.14,6.43Zm.17.26s0,0,0,0S7.3,6.68,7.31,6.7ZM7.17,6s0,0,0,0S7.18,6,7.17,6Zm0,.26,0,0,0,0,0,0Zm0-.06s0,0,0,0S7.14,6.19,7.14,6.2Zm-.06,0s0,0,0,0A0,0,0,0,1,7.08,6.25Zm0,.32a.11.11,0,0,1,0,.08S7,6.58,7.07,6.57Zm0,.08s0,0,0,0S7.07,6.65,7.07,6.65Zm0,.23s0,0,0,0S7.07,6.88,7.07,6.88Zm-.14,0s0,0,0,0S6.93,6.84,6.93,6.85ZM6.88,6s0,0,0,0S6.87,6,6.88,6Zm-.17.22s0,0,0,0S6.71,6.18,6.71,6.18Zm0,.24s0,0,0,0A0,0,0,0,1,6.71,6.42Zm0,.21s0,0-.07,0S6.72,6.6,6.74,6.63Zm-.1,0s0,0,0,0S6.63,6.63,6.64,6.63Zm-.2-.44s0,0,0,0S6.44,6.19,6.44,6.19Zm.06.24s0,0,0,0S6.52,6.42,6.51,6.43Zm0-.42s0,0,0,0S6.52,6,6.52,6Zm0,.19s0,0,0,0S6.51,6.19,6.5,6.2Zm0-.25c0,.06-.07.07-.06,0Zm-.43.87s0,0,0,0S6,6.84,6.05,6.82Zm.24,0s0,0,0,0S6.29,6.85,6.29,6.85Zm0-.87s0,0,0,0S6.3,6,6.28,6Zm0,.4c0,.08-.08,0,0,0Zm0,.23s0,0,0,0S6.27,6.6,6.27,6.61Zm-.06.2s0,0,0,0S6.22,6.81,6.22,6.81Zm0-.21c.08,0,0,.08,0,0Zm0,.18s0,0,0,0S6.2,6.78,6.2,6.79Zm-.11-.61s0,0,0,0S6.09,6.17,6.09,6.17ZM6,6.61c.08,0,0,.08,0,0Zm0-.23s0,0,0,0S6,6.37,6,6.38Zm-.21,0s0,0,0,0S5.81,6.38,5.81,6.37Zm.07.27s0,0,0,0S5.88,6.63,5.87,6.64Zm0-.28s0,0,0,0S5.89,6.36,5.89,6.36Zm0,0s0,0,0,.07S5.9,6.41,5.92,6.39Zm-.09.42c.07,0,0,.09,0,0Zm0-.65c0,.08-.08,0,0,0ZM5.64,8.72s0,0,0,0S5.65,8.73,5.64,8.72Zm.06-.6,0,0c-.05,0-.08-.06,0-.11S5.68,8.07,5.71,8.12ZM5.62,9.21s0,0,0,0S5.62,9.21,5.62,9.21Zm0-.24s0,0,0,0S5.63,9,5.61,9Zm0-.22s0,0,0,0S5.6,8.76,5.6,8.75Zm0-.83s0,0,0,0S5.63,7.92,5.63,7.93Zm0,0s0,0,0,0S5.63,7.95,5.64,7.94Zm0-.66.06-.06C5.71,7.23,5.61,7.33,5.59,7.27ZM5.64,7s0,0,0,0,0-.06,0-.1,0,0,0,0S5.63,7,5.64,7Zm0-.19s0,0,0,0S5.64,6.85,5.64,6.84ZM5.78,7s0,0,0,0S5.77,7,5.78,7Zm-.1-.35s0,0,0,0S5.68,6.63,5.68,6.64Zm0-.19,0,0,.05,0S5.67,6.42,5.64,6.44Zm0-.29s0,0,0,0,0,.07,0,0Zm0,.43,0,0,0,0,0,0Zm0,1.12s0,0,0,0S5.57,7.73,5.58,7.71Zm0-1.14s0,0,0,0S5.57,6.56,5.57,6.56ZM5.57,9l0,0s0,0-.06,0S5.56,9,5.57,9ZM5.42,9s0,0,0,0l0,0,0,0S5.4,9,5.42,9Zm-.16,1.45s0,0,.06,0,0,0,0,.06S5.28,10.49,5.26,10.46Zm.07.23s-.1,0-.1,0S5.3,10.65,5.33,10.69Zm0-.45s0,0,0,0S5.29,10.25,5.3,10.24Zm0-.24s0,0,0,0S5.33,10,5.31,10Zm0-.44s0,0,0,0S5.32,9.57,5.32,9.56Zm0,0s0,0,0,0S5.34,9.6,5.34,9.59ZM5.4,6.84s0,0,0,0S5.41,6.83,5.4,6.84Zm0-.23c0-.07,0,.07,0,0Zm0,.43s0,0,0,0S5.4,7,5.41,7Zm0,.23s0,0,0,0S5.41,7.26,5.4,7.27Zm0,.22s0,0,0,0S5.39,7.48,5.39,7.49Zm0,.22a0,0,0,0,1-.06,0S5.39,7.69,5.41,7.7Zm0,.64s0,0,0,0S5.38,8.35,5.37,8.34Zm0,.6s0,0,0,0S5.42,8.94,5.41,8.94Zm0-1s0,0,0,0S5.37,7.9,5.37,7.91Zm0,1.47s0,0,0,0S5.35,9.38,5.35,9.38Zm0-.88s0,0,0,0S5.41,8.5,5.4,8.5Zm0-.2s0,0,0,0S5.43,8.3,5.43,8.29Zm0-.66s0,0,0,0S5.45,7.64,5.44,7.63Zm.06,2.79c.06,0,.07.1,0,.1S5.45,10.45,5.5,10.42Zm0-.12s0,0-.05-.06S5.6,10.27,5.53,10.3Zm0-.24s0,0,0,0h0s0,0,0,0Zm0-.85s0,0,0,0S5.56,9.23,5.57,9.21Zm0,.16s0,0,0,0S5.57,9.38,5.56,9.38Zm0-.21s0,0,0,.07S5.51,9.19,5.54,9.16Zm0-1.54s0,0,0,0S5.5,7.63,5.5,7.62Zm0-.15Zm0,0s0,0,0,0S5.47,7.44,5.49,7.45Zm0-1.32s0,.07,0,.07S5.44,6.15,5.45,6.13Zm0,.23s0,0,0,0,0,0,0,.07l0,0S5.4,6.37,5.43,6.36Zm-.1.41s0,0,0,0S5.34,6.76,5.34,6.77Zm0,.84s0,0,0,.06l0,0s0,0,0,0S5.28,7.64,5.31,7.61Zm0-1.44a0,0,0,0,1-.06,0s0,0,0,0,0,0,0-.07S5.22,6.13,5.26,6.17ZM5.1,10.23s0,0,0,0S5.12,10.21,5.1,10.23Zm0-.23s0,0,0,0S5.08,10,5.08,10Zm0,.31s0,0,0,0S5.13,10.3,5.13,10.3Zm0-.74s0,0,0,0S5.12,9.57,5.11,9.56Zm0-.18,0,0,0,0,0,0Zm0-.39s0,0,0,0S5.15,9,5.14,9Zm0-1.11s0,0,0,0S5.17,7.89,5.16,7.88Zm0-1.1,0,0s0,0,0,0l0,0Zm0-.41,0,0a.07.07,0,0,0,0,0s0,0,0,0S5.16,6.38,5.17,6.38Zm0,.65c0,.08-.08,0,0,0Zm0,.45s0,0,0,0S5.19,7.47,5.19,7.47Zm0-.6c-.07,0,.07,0,0,0Zm0,.84s0,0,0-.06S5.18,7.71,5.16,7.71Zm.06.56s0,0,0,0S5.23,8.26,5.22,8.27Zm-.09-.36,0,0,0,0,0,0Zm0,1.71s0,0,0,0S5.11,9.61,5.11,9.61Zm0-2.43s0,0,0,0S5.09,7.18,5.09,7.18Zm0,3.49s0,0,0,0S5.09,10.67,5.08,10.67ZM5,10.91s0-.09,0-.08S5.06,10.91,5,10.91Zm0-3.3c.08,0,0,.08,0,0ZM5,6S5,6,5,6,5,6,5,6Zm0,0s0,0,0,0S5,6.08,5,6.08Zm0,.07s0,0,0,0,0,0,.07,0H5s0,0,0,0,0,0,0,0S5,6.14,5,6.16Zm0,.42s0,0,0,0S5,6.57,5,6.58Zm0-.17s0,0,0,0S5,6.4,5,6.41Zm0,0s0,0,0,0S4.93,6.37,4.94,6.36Zm0,.22s0,0,0,0,0,0,.06,0,0,0-.07,0l0,0A.08.08,0,0,1,5,6.58Zm0,.64c.11,0,0,.13,0,0ZM5,7s0,0,0,0,0,0,0,0S5,7,5,7Zm0,.49s0,0,0,0S5,7.51,5,7.51ZM5,7.7s0,0,0,0S5,7.69,5,7.7Zm0,.41s0,0,0,0S4.93,8.12,4.95,8.11Zm0,.24a0,0,0,0,1,0,0S5,8.34,5,8.35Zm0,.45s0,0,0,0S5,8.78,4.95,8.79Zm0-.1s0,0,.05,0S5,8.75,4.94,8.69Zm0-1.9s0,.07-.06,0S5,6.81,5,6.79Zm0,2.76,0,0C4.85,9.56,4.93,9.5,4.94,9.55Zm0,.23s0,0,0,0S4.9,9.77,4.92,9.78Zm0,.29s0,0,0,0S4.88,10.08,4.88,10.07Zm0,.13s0,0,0,0S4.91,10.2,4.92,10.2Zm0,.08s0,0,0,0S4.93,10.28,4.92,10.29Zm0,1.55s0,0,0,0S5,11.84,5,11.84Zm0,0c-.07-.07,0-.12.06-.12S5,11.8,5,11.8Zm0-.21s0,0-.07-.08,0,0,.08,0l0,.05A.11.11,0,0,1,5,11.58Zm0-.23s0,0,0-.07a.08.08,0,0,1,.12,0A.09.09,0,0,1,5,11.35ZM5,11.14A.11.11,0,0,1,5,11.09s.07-.08.12,0Zm0-.72s0,.05,0,.05S5,10.41,5.09,10.42Zm0,.09s0,0,0,0S5.11,10.51,5.11,10.51Zm0,.2s0,0,0,0A0,0,0,0,1,5.12,10.71ZM5.2,12s0,0-.07-.05.09,0,.11,0Zm-.07-.28s.05,0,.08,0,0,.07,0,.1A.11.11,0,0,1,5.13,11.74Zm.1-.15a.05.05,0,0,1,0-.1s0,0,0,0S5.26,11.56,5.23,11.59Zm0-.22a.11.11,0,0,1-.07-.05.11.11,0,0,1,.07,0A.06.06,0,0,1,5.24,11.37Zm0-.22s0,0-.07-.05L5.25,11A.07.07,0,0,1,5.26,11.16Zm0-.28s.07,0,.1,0A0,0,0,1,1,5.22,10.87ZM5.32,12s0,0,0,0S5.32,12,5.32,12Zm0-1.07s0,0,0,0S5.33,11,5.33,10.94ZM5.43,12s0,0,0,0S5.48,11.94,5.43,12Zm0-.19a.1.1,0,0,1-.06,0l.07-.06S5.47,11.78,5.42,11.81Zm0-.21,0,0s0,0,.06-.06S5.47,11.58,5.42,11.6Zm0-.23a0,0,0,0,1,0-.08C5.5,11.34,5.48,11.38,5.42,11.37Zm0-.2,0,0a.12.12,0,0,1,.05-.07s0,0,0,0A.06.06,0,0,1,5.45,11.17Zm0-.23s0,0,0,0,0,0,.06,0S5.49,10.94,5.45,10.94Zm0-.25s.08-.06.11,0S5.47,10.75,5.43,10.69Zm.13.24c.07,0-.07,0,0,0Zm0,1.3s0,0,0,0S5.62,12.22,5.61,12.23Zm0-.2s0,0,0,0h0s0,0,0,0Zm0-.22s0,0,0,0,0,0,0,0S5.64,11.79,5.62,11.81Zm0-.2s0-.12.06-.06A.07.07,0,0,1,5.63,11.6Zm0-.27s0,0,.07,0,0,0,0,.06S5.61,11.39,5.62,11.34Zm0-.22s.09,0,.08,0S5.63,11.17,5.63,11.12Zm0-.15,0,0s.06-.09.09-.05S5.72,11,5.68,11Zm.09.64s0,0,0,0S5.77,11.61,5.77,11.6Zm0,.63s0,0,0,0S5.81,12.24,5.81,12.23Zm0-.22s0,0,0,0S5.84,12,5.82,12Zm0-.18s0-.08.06,0S5.85,11.82,5.82,11.83Zm0-.22s0,0,0,0,.06,0,.08,0S5.86,11.59,5.86,11.62Zm0-.23s0,0,0,0h0s0,0,0,0Zm0-.21,0,0s.06,0,.08,0Zm.08,0s0,0,0,0S6,11.18,6,11.17ZM6,12c0,.07,0-.07,0,0Zm0-.18,0,0s0,0,.06,0S6.1,11.83,6.07,11.85Zm0-.29s0,0,0,0l0,0S6.07,11.58,6.09,11.56Zm0-.16,0,0s0,0,.06,0Zm.18.65s0,0,0,0S6.27,12.06,6.27,12.06Zm0-.2s0,0,0,0,0-.07.05,0Zm0-.43s0,0,0-.06S6.34,11.44,6.3,11.42Zm.08.18s0,0,0,0S6.38,11.61,6.38,11.6Zm0-.2s0,0,0,0S6.4,11.4,6.4,11.4Zm0,.67s0,0,0,0S6.43,12.07,6.41,12.07Zm.05,0s0,0,0,0S6.45,12.06,6.46,12Zm0-.18c0-.09.1,0,0,0Zm0-.24s0,0,0,0S6.5,11.63,6.5,11.63Zm0-.18a.07.07,0,0,0,0,0s.06,0,.08,0S6.53,11.42,6.5,11.45ZM8,12s0,0,0,0a.08.08,0,0,1,0-.07l0,0S8,12,8,12Zm0-.24,0,0,0,0,0,0Zm0-.29s0,.05,0,.08l0-.05S8,11.52,8.07,11.48Zm-.11-1,0,0,0,0,0,0Zm-.08.31s0,0,0,0S7.88,10.83,7.87,10.84Zm-.12-.71s0,0,0,0l0,0S7.79,10.11,7.76,10.13Zm-.05-.18,0,0,0,0,0,0Zm.06.22s0,0,0,.06,0,0-.06-.06S7.73,10.12,7.76,10.17Zm-.07,1s0,0,0,0S7.69,11.15,7.69,11.14Zm0,0c0,.07-.09,0,0,0Zm0-.85s0,0,0,0,0,0,0,0S7.73,10.32,7.74,10.31ZM7.64,11.5c-.08,0,0-.08,0,0Zm0,.22s0,0,0,0S7.62,11.71,7.62,11.72ZM7.5,11s0,0,0,0S7.5,11,7.5,11Zm-.21.44s0,0,0,0S7.29,11.4,7.29,11.41Zm-.13-.17,0,0,0,0,0,0Zm-.07.18s0,0,0,0S7.07,11.41,7.09,11.42Zm-.4.68s0,0,0,0,0,0,0,0S6.7,12.08,6.69,12.1Zm0-.26s0,0,0,0S6.68,11.82,6.73,11.84Zm0-.21s0,0,0,0S6.72,11.64,6.71,11.63Zm0-.19s0,0,0,0S6.75,11.43,6.75,11.44Zm.18.68s0,0,0,0l0,0,0,0,0,0Zm0-.28s0,0,0,.06A0,0,0,0,1,6.94,11.84Zm0-.16s0,0,0,0,0,0,0,0l0,0Zm0-.22a0,0,0,0,1,0-.06S7,11.47,6.95,11.46Zm.09.4s0,0,0-.06S7.07,11.86,7,11.86Zm.07.31a.11.11,0,0,1,0-.08s.08-.06.11,0S7.14,12.12,7.12,12.18Zm.06-.27c-.08,0,0-.08,0,0Zm0-.26h.06C7.23,11.7,7.12,11.71,7.13,11.65Zm0-.17s0,0,0,0h0s0,0,0,0Zm0-.23,0,0,0,0,0,0Zm.06.81s0,0,0,0S7.26,12.07,7.26,12.06Zm0-.43s0,0,0,0S7.28,11.63,7.27,11.63Zm.06.53s0,0,0-.06,0,0,.07,0S7.35,12.14,7.33,12.15Zm0-.28s0,0,0,0S7.34,11.89,7.36,11.88Zm0-.19,0,0s0,.05,0,0S7.36,11.71,7.35,11.68Zm.15-.48s0,0,0,0S7.51,11.2,7.5,11.21Zm0,.2s0,0,0,0S7.48,11.42,7.48,11.41Zm0-.4s0,0,0,0S7.5,11,7.5,11Zm0-.06s0,0,0,0S7.52,11,7.52,11Zm.05,1.19s0,0,0,0S7.57,12.15,7.57,12.15Zm0-.15a.08.08,0,0,1,0-.12s0,0,.06,0S7.62,12,7.59,12Zm0-.94s0,0,0,0S7.63,11.06,7.63,11.05Zm0-.65,0,0,0,0,0,0Zm0,1,0,0s0,0,0,0S7.69,11.46,7.68,11.42Zm0,.65s0,0,0,0S7.69,12.07,7.69,12.07Zm0-.45s0,0,0,0A0,0,0,0,1,7.71,11.62Zm0-.64c0-.07,0,.07,0,0Zm0,1.16c0,.07,0-.07,0,0Zm0-.22s0,0,0,0S7.75,11.94,7.74,11.93Zm.06,0s0,0,0,0S7.8,12,7.8,11.95Zm0-.21s0,0,0,0h0s0,0,0,0Zm0-.25s0,0,0,0S7.82,11.5,7.81,11.49Zm.06-.42s0,0,0,0A0,0,0,0,1,7.87,11.07Zm0-.66s0,0,0,0S7.89,10.42,7.9,10.41Zm0,1s0,0,0,0A0,0,0,0,1,7.93,11.41Zm0-.64s.06-.06.07,0S7.93,10.72,7.9,10.77Z"/><path class="cls-2" d="M12.87,11,12.8,11s0-.07.05-.09l0,.06v-.36h0v-.26h0V5.94h-.34s0,0,0,0h-2.2A.85.85,0,0,0,10,6h0s0,0,0,0,0,0,0,0,0,0-.07,0a.91.91,0,0,0-.22.16h0a1.28,1.28,0,0,0-.19.25l0,0s0,0,0,0a2,2,0,0,0-.19.46.72.72,0,0,0,0,.12c0,.07,0,.13,0,.19h0a1.41,1.41,0,0,0,.67.93h0s0,0,0,0h0l.2.09a.83.83,0,0,0,.67,0l0,0s0,0,0,0a.76.76,0,0,0,.28-.34A.39.39,0,0,0,11,7.37a.68.68,0,0,0-.34,0,.05.05,0,0,1,0,0s0,0,0,0a1,1,0,0,0-.26.08.73.73,0,0,0-.15.11s0,0,0,0l0,0v0h0l0,0a.76.76,0,0,1,.06-.18h0s0-.06,0-.06v0a.61.61,0,0,1,.12-.16l0,0a.07.07,0,0,1,0,0h0a1.23,1.23,0,0,1,.36-.19h0a0,0,0,0,1,0,0l0,0a1.57,1.57,0,0,1,.62,0,.67.67,0,0,1,.22.08l0,0s.06,0,.08,0h0a.91.91,0,0,1,.38.6h0a0,0,0,0,1,0,0,.91.91,0,0,1,0,.14l0,0s0,0,0,0v0a0,0,0,0,1,0,0,1.08,1.08,0,0,1,0,.18l0,0,0,0,0,0,0,0,0,.08c-.31.65-.84.79-.88.92a.13.13,0,0,0,0,0,.15.15,0,0,0,0,0c0,.06.14.13.3.25h0A1.79,1.79,0,0,1,12,10a.91.91,0,0,1,0,.86h0s0,0,0,0h0a.9.9,0,0,1-.45.37,0,0,0,0,1,0,0s0,0-.06,0l-.14,0h0v0s0,0,0,0a1.58,1.58,0,0,1-.41,0l0,0a0,0,0,0,1,0,0,.88.88,0,0,1-.4-.22h0l0,0h0a.92.92,0,0,1-.21-.49,1,1,0,0,0,.46.26h0s0,0,0,0h.05a.48.48,0,0,0,.24-.05.5.5,0,0,0,.15-.12h0l0,0s0,0,0,0h0a.37.37,0,0,0,.06-.2h0s0,0,0,0a.35.35,0,0,0,0-.14.73.73,0,0,0-1-.39l-.08,0s0,0,0,0a1.43,1.43,0,0,0-.73.81,1,1,0,0,0,0,.26h0a1.27,1.27,0,0,0,0,.33.05.05,0,0,1,0,0,1.87,1.87,0,0,0,.36.66h0a0,0,0,0,1,0,0,.65.65,0,0,0,.37.23h0c.79,0,2,0,2.13,0h0a0,0,0,0,1,0-.05s0,0,0,0,.53-.2.53-.56V11ZM9.53,6.66s0,0,0,0S9.52,6.67,9.53,6.66Zm-.11.39s0,0,0,0S9.41,7.06,9.41,7.06Zm0-.24s0,0,0,0S9.45,6.83,9.45,6.82Zm.05.29s0,0,0,0S9.51,7.12,9.51,7.11Zm0-.23s0,0,0,0S9.51,6.89,9.52,6.88Zm.08.65s0,0,0,0S9.64,7.52,9.6,7.53Zm0-.26s0,0,0,0S9.63,7.27,9.62,7.26Zm0-.42s0,0,0,0S9.66,6.85,9.66,6.84Zm1.41.75s0,0,0,0S11.07,7.59,11.07,7.59Zm0,0s0,0,0,0S11,7.56,11,7.57Zm0,.22s0,0,0,0S11,7.78,11,7.78Zm-.24.42s0,0,0,0S10.79,8.21,10.8,8.2Zm0-.41s0,0,0,0S10.82,7.79,10.83,7.79Zm0,.17s0,0,0,0S10.81,8,10.81,8Zm-.07-.61s0,0,0,0S10.73,7.35,10.73,7.35Zm-.15.21a0,0,0,0,1,0,0S10.57,7.58,10.58,7.56Zm0,.45s0,0,0,0S10.6,8,10.61,8Zm0,.22s0,0,0,0S10.6,8.22,10.61,8.22Zm-.12-.45s0,0,0,0S10.49,7.76,10.49,7.77Zm-.1-.21c0-.07,0,.07,0,0Zm0,.22s0,0,0,0S10.36,7.78,10.36,7.77Zm0,.23s0,0,0,0S10.38,8,10.4,8Zm-.12-.25s0,0,0,0S10.26,7.75,10.27,7.76Zm-.09,0s0,0,0,0S10.18,7.78,10.18,7.78Zm0,.18c0,.08,0,.08,0,0Zm0,.23s0,0,0,0S10.18,8.19,10.18,8.19ZM10,7.52s0,0,0,0S10,7.51,10,7.52Zm0-1.31s0,0,0,.07l0,0-.06-.06S9.94,6.21,10,6.21Zm0,.18s0,0,0,0,.06,0,.08.05,0,0-.07,0,0,0,0-.07l0,0S9.91,6.39,9.94,6.39Zm0,.53s0,0,0,0,0,0,0,0S10,6.91,10,6.92Zm0-.24c0-.07,0,.07,0,0Zm-.06.19s0,0,0,0S9.91,6.87,9.91,6.87Zm-.2.91s0-.06,0-.06S9.74,7.79,9.71,7.79Zm0-.91a0,0,0,0,1,0,.06C9.69,6.9,9.72,6.87,9.75,6.87Zm0,.66s0,0,0,0S9.72,7.55,9.73,7.53Zm0-.45s0,0,0,0S9.7,7.07,9.75,7.09Zm0-.38,0,0,0,0s0,0,0,0S9.76,6.7,9.73,6.7Zm0-.21c0-.06.07-.08.06,0S9.74,6.48,9.72,6.5Zm0-.2c-.05,0,0,0,0-.07S9.82,6.26,9.76,6.29Zm0,1.63s0,0,0,0S9.79,7.93,9.79,7.93Zm0-.43s0,0,0,0S9.82,7.5,9.82,7.49Zm0-.15s-.06-.06-.05-.09.07,0,.11,0ZM9.93,8s0,0,0,0S9.94,8,9.93,8Zm0-.18,0,0,0,0,0,0Zm0-.27s0,0,0,0S9.94,7.54,9.94,7.54Zm0-.18s0,0,0,0h0s0,0,0,0Zm0-.26,0,0,.06.06C10,7.19,9.93,7.12,9.9,7.1ZM10,8l0,0S10,8,10,8Zm0-.49s0,0,0,0S10.07,7.52,10.06,7.54Zm.61-1.48c0,.05-.08,0-.08,0S10.67,6,10.67,6.05Zm-.1.18h0l0,0,0,0s-.05.09-.09.06,0,0,0-.07Zm0,.24s0,0,0,0S10.55,6.46,10.55,6.47ZM10.4,6l0,0s-.06,0-.08,0Zm-.18.08s0,0,0,0S10.23,6.08,10.22,6.09Zm0,0s-.07,0,0,0S10.22,6,10.21,6Zm0,0s0,0,0,0S10.17,6,10.17,6Zm-.05.43s0,0,0,0S10.14,6.42,10.12,6.44Zm0,.19s0,0,0,0S10.12,6.65,10.11,6.63Zm.06.45,0,0C10.18,7.19,10.11,7.12,10.17,7.08Zm0-.17a.08.08,0,0,1,0,0l0,0,0,0Zm0-.17c-.05,0,0,0,0-.07s.07,0,.07,0Zm0-.24s0-.06,0-.08a.11.11,0,0,1,.07.05S10.18,6.49,10.16,6.51Zm0-.19c-.05,0,0-.07,0-.11l0,0S10.23,6.28,10.18,6.31Zm.11.79s0,0,0,0S10.29,7.11,10.29,7.11Zm0-.45s0,0,0,0S10.31,6.67,10.31,6.66Zm.08.28s0,0,0-.06l0,0S10.42,6.92,10.39,6.94Zm0-.21s0-.06,0-.08,0,0,0,.06Zm0-.2-.06-.06h0s.05,0,0,0S10.46,6.51,10.4,6.53Zm-.06-.28h0a0,0,0,0,0,0,0s.08,0,.12,0S10.36,6.31,10.34,6.26Zm.18.65s0,0,0,0S10.52,6.91,10.52,6.9Zm0-.23s0,0,0,0S10.54,6.68,10.53,6.67Zm0,.25a.11.11,0,0,1,.07,0,.08.08,0,0,0,0,0A.07.07,0,0,1,10.56,6.92Zm.05-.17c-.05,0,0-.09,0-.11l0,0A.11.11,0,0,1,10.61,6.75Zm0-.27s.06-.08.11,0S10.6,6.54,10.57,6.49Zm.19.21s0,0,0,0S10.76,6.7,10.75,6.7Zm1-.67s0,0,0,0S11.74,6,11.74,6Zm0,.24s0,0,0,0S11.73,6.28,11.71,6.28Zm0-.2s0,0,0,0S11.7,6.07,11.7,6.07ZM10.85,6l0,0a.11.11,0,0,1,0,.07s0,0,0,0A.06.06,0,0,1,10.85,6Zm0,.28s0,0-.06,0,0-.09,0-.08S10.87,6.26,10.88,6.28Zm0,.47c-.06,0-.07-.09,0-.1S10.88,6.71,10.84,6.74Zm-.06-.25s.07-.08.11,0S10.82,6.54,10.78,6.49Zm.2,0c-.07,0,.07,0,0,0Zm0,.21s0,0,0-.06,0,0,.07,0S11,6.72,11,6.74Zm0-.26s.1,0,.1,0S11,6.51,11,6.47Zm0-.19a0,0,0,1,1,.1,0S11,6.32,11,6.28Zm.05-.17A.07.07,0,0,1,11,6s0,0,.07,0Zm.14.39s0,0,0,0S11.2,6.51,11.19,6.5Zm.06.22s0,0,0,0S11.31,6.73,11.25,6.73Zm0-.25s0,0,0,0S11.24,6.48,11.24,6.47Zm0-.16s0-.09,0-.08S11.3,6.32,11.25,6.32Zm0-.27,0,0a.11.11,0,0,1,.07,0S11.27,6.14,11.21,6.05Zm.2.71s0,0,0,0S11.43,6.75,11.41,6.76Zm0-.73s0,0,0,0a0,0,0,1,1-.06,0S11.46,6,11.45,6Zm0,.22s0,0,0,0,.06.05,0,.07Zm0,.44s0,0,0,0S11.49,6.69,11.49,6.68Zm0-.58s0,0,0,0S11.54,6.09,11.52,6.11Zm.16.63s0,0,0,0,0,0,0,0,0,0,0,0S11.7,6.71,11.68,6.73Zm0-.23s0,0,0,0S11.71,6.52,11.72,6.51Zm.2-.46s0,0,0,0S11.91,6.06,11.92,6.05Zm0,.19s0,0,0,.06S11.87,6.23,11.92,6.24Zm0,.06,0,0,0,0,0,0Zm0,.42s0,0,0,0S11.94,6.73,11.91,6.73Zm0,.22s.06,0,.08,0S11.91,7,11.88,6.94Zm.14.28s0,0,0,0S12,7.23,12,7.22Zm0-.45s0,0,0,0S12,6.78,12,6.78Zm.06-.52s0,0,0,0S12.09,6.27,12.1,6.26Zm0,0s0,0,0,0S12.1,6.22,12.1,6.21Zm0,.28s0,0,0,0S12.13,6.48,12.13,6.49Zm0,.43s0,0,0,0S12.1,6.93,12.1,6.92Zm0,.26s0,0,0,0S12.14,7.17,12.13,7.18Zm0-1.06s0,0,0,0S12.11,6.13,12.1,6.12Zm-.22,2.75s0,0,0,0S11.88,8.86,11.88,8.87Zm-.2-.23s0,0,0,0,0,0,0,0S11.66,8.65,11.67,8.64Zm0,.68s0,0,0,0S11.69,9.31,11.69,9.31Zm0-.42s0,0,0,0S11.65,8.9,11.66,8.89Zm-.19.26s0,0,0,0S11.48,9.14,11.47,9.15Zm.16.15s0,0,0,0S11.63,9.29,11.63,9.3Zm0-.2s0,0,0,0S11.64,9.1,11.64,9.1Zm0,.25s0,0,.07,0A0,0,0,0,1,11.66,9.35Zm.19-.26c.08,0,0,.08,0,0Zm0,.11s0,0,0,0S11.88,9.19,11.89,9.19Zm0,.1s0,0,0,0,0,0,0,0S11.87,9.31,11.88,9.29Zm0-.35s0,0,0,0S11.89,8.95,11.89,8.94Zm0,.6s0,0,0,0S11.86,9.55,11.86,9.54Zm0-.17s0,0,0,0S11.87,9.39,11.89,9.38Zm0-.19s0,0,0,0S11.9,9.19,11.9,9.18Zm0-.73,0,0,0,0,0,0Zm-.78,2c0-.08.08,0,0,0Zm-.41,0s0,0,0,0,0,0,0,0,0,0,.05,0S10.76,10.43,10.73,10.46Zm.26.15s0,0,0,0S11,10.6,11,10.6Zm0-.42s0,0,0,0S10.95,10.19,11,10.18Zm0,.24s0,0,0,0S11,10.42,11,10.42Zm0,.19s0,0,0,0S10.93,10.62,10.93,10.61ZM10.87,10Zm-.1.2,0,0,0,0s0,0,0,0l0,0C10.65,10.2,10.76,10.11,10.77,10.17Zm-.09.42s0,0,0,0S10.67,10.59,10.68,10.59Zm-.37-.2s0,0,0,0S10.31,10.39,10.31,10.39Zm.24-.44,0,0h0s0,0,0,0,0,0,0,0S10.54,9.93,10.55,9.94Zm0,.68c-.07,0,0-.09,0,0Zm-.14,0c-.08,0,0-.08,0,0Zm0-.18s0,0,0,0S10.36,10.4,10.36,10.41Zm0-.26s0,0,0,0S10.35,10.15,10.35,10.15Zm0-.23s0,0,0,0S10.33,9.91,10.33,9.92Zm0,.44s0,0,0,0S10.27,10.31,10.28,10.36Zm0,.23s0,0,0,0S10.29,10.58,10.28,10.59Zm.58.85s0,.05,0,.09,0,0,0,0,0,0,0,0S10.83,11.46,10.86,11.44Zm-.19.25s0,0,0,0,0,0-.06,0S10.66,11.67,10.68,11.7Zm-.26-.2s0,0,0,0S10.4,11.49,10.41,11.5Zm0,.21s0,0,0,0S10.41,11.69,10.41,11.7Zm-.17-.46s0,0,0,0S10.24,11.24,10.24,11.24Zm0,.42s0,0,0,0S10.19,11.67,10.2,11.66Zm0,.25s0,0,0-.06S10.24,11.88,10.19,11.91Zm-.1-1.78h0s0,0,0,0h0s0,0,0,0-.05.07-.07,0S10.08,10.13,10.09,10.14Zm0,.89s0,0,0,0S10.12,11,10.12,11Zm0-.47s0,0,0,0S10.07,10.55,10.07,10.56Zm-.58,0s0,0,0,0S9.49,10.58,9.49,10.59ZM9.42,11l0,0,0,0,0,0Zm0-.41s.1.06,0,.07A.11.11,0,0,1,9.43,10.6Zm.05.4s0,0,0,0S9.47,11,9.48,11Zm.08.45c0-.05,0-.06,0-.08S9.59,11.42,9.56,11.45Zm0-.25s0,0,0,0S9.59,11.2,9.59,11.2Zm0-.24s0,0,0,0S9.59,11,9.6,11Zm0-.21s0,0,.07,0S9.6,10.78,9.58,10.75Zm.07-.44s0,0,0,0S9.65,10.32,9.65,10.31Zm0,1s0,0,0,0S9.7,11.26,9.69,11.27Zm.07.7s0-.06,0-.07S9.75,11.95,9.76,12Zm0-.35s0,0,0,0S9.78,11.61,9.78,11.62Zm0-.24s0,0,0,0S9.77,11.39,9.77,11.38Zm0-.19s0,0,0,0S9.79,11.2,9.81,11.19Zm0-.2a0,0,0,0,1,0,0S9.84,11,9.83,11Zm0-.41,0,0,0,0,0,0Zm0-.22s0,0,0,0S9.87,10.36,9.88,10.36Zm0,.23s0,0,0,0S9.88,10.59,9.88,10.58Zm0,.88s0,0,0,0S9.88,11.47,9.88,11.46Zm.06-1.38,0,0a.11.11,0,0,1-.07,0S9.89,10.11,9.94,10.08Zm0,2s0,0,0,0S10,12.1,9.95,12.1Zm0-.19s0,0,0,0S10,11.91,10,11.91Zm0-.05,0,0,0,0,0,0Zm0-.44s0,0,0,0S10,11.43,10,11.42Zm0,.19s0,0,0,0S10,11.62,10,11.61ZM10,11c0-.08.08,0,0,0Zm0-.23s0,0,0,0S10,10.8,10,10.8Zm0,.47c0-.06.07-.08.06,0S10.11,11.25,10.09,11.26Zm.07.93s0,0,0,0S10.16,12.2,10.16,12.19Zm0,0s0,0,0,0,0,0,0,0,0,0,0,0a.07.07,0,0,1,.09,0S10.22,12.13,10.17,12.16Zm0-.72s0,0,0,0l0,0S10.19,11.45,10.22,11.44Zm.09,0s0,0,0,0S10.31,11.48,10.31,11.47Zm0,.65s0,0,0-.06,0,0,0,.07S10.37,12.15,10.35,12.12Zm0-.2s0-.07,0-.1.05,0,0,.1S10.4,11.89,10.37,11.92Zm.09-.24s-.07,0,0-.05l0,0S10.45,11.67,10.46,11.68Zm0-.18,0,0s0,0,0,0,0,0,0-.07S10.51,11.48,10.46,11.5Zm0-.23c0-.08.08,0,0,0Zm.13.9a.06.06,0,0,1,0-.1S10.66,12.14,10.6,12.17Zm0-.22a.08.08,0,0,1,0-.12s0,0,.07.08S10.62,11.91,10.59,12Zm.09-.67s0,0,0,0,0-.07.05,0Zm.13.88s0,0,0-.06S10.85,12.15,10.81,12.16Zm0-.2s0,0,0-.06,0,0,.07,0Zm0-.21c0-.05,0-.09.07-.1A.06.06,0,0,1,10.82,11.75Zm.14.38s0,0,0,0S11,12.14,11,12.13Zm.06,0s0,0,0,0S11,12.17,11,12.17Zm0-.2c0-.09.1,0,0,0Zm0-.18s0,0,0,0S11,11.79,11,11.78Zm0-.11c.05,0,0,0,0,.07S11,11.71,11.07,11.67Zm0-.12s0,0,0-.07,0,0,.06,0,0,0,0,0S11.09,11.51,11,11.55Zm.28-.15s0,0,0,0S11.31,11.39,11.32,11.4Zm0,0s0,0,0,0S11.27,11.43,11.28,11.42Zm.05.11s0,0-.06,0S11.33,11.5,11.33,11.53Zm0,.17s0,0,0,0h0S11.28,11.7,11.29,11.7Zm0,.06s0,0,0,0S11.26,11.75,11.28,11.76Zm0,.19s0,0,0,0S11.27,11.95,11.26,12Zm0,.25s0,0,0,0,0,0,0,0,0,0,0,.06Zm0,0s0,0,0,0S11.28,12.21,11.28,12.21Zm0-.18s0,0,0-.06,0,0,0,0Zm0-.1s0,0,0,0S11.29,11.94,11.29,11.93Zm0,.25s0,0,0,0S11.32,12.18,11.32,12.18Zm.07,0c-.05,0,0,0,0-.06S11.41,12.18,11.39,12.2Zm.1-.06a.08.08,0,0,1,0,.07S11.47,12.16,11.49,12.14Zm0,.07s0,0,0,0S11.49,12.22,11.49,12.21Zm0-.25c-.09,0,0-.1,0,0Zm0-.17s0,0,0-.06,0,0,.06,0S11.51,11.79,11.48,11.79Zm0-.2a.08.08,0,0,1,0-.12s0,.06,0,.09A.09.09,0,0,0,11.48,11.58Zm.22.62,0,0,0,0,0,0Zm0-.24,0,0,0,0,0,0Zm0,.05s0,0,0,0S11.72,12,11.72,12Zm0-.21s0-.07,0-.08S11.7,11.78,11.72,11.8Zm0-.23s0,0,0,0,0,0,0,0,0-.07,0-.08l0,0S11.74,11.56,11.75,11.58Zm0-.28s0,0,0,0S11.74,11.3,11.75,11.3Zm.24-.16s0,0,0,0S12,11.12,12,11.13Zm0,.18a.09.09,0,0,1,0,.08C11.9,11.37,12,11.34,12,11.32Zm0,.25s0,0,0,0S12,11.56,12,11.57ZM11.9,12s0,0,0,0S11.91,12,11.9,12Zm0,.28c-.05,0,0-.09.05,0Zm0-.46s0-.09.08,0A.11.11,0,0,1,11.92,11.81Zm.89-3.44s0,0,0,0S12.81,8.37,12.81,8.36Zm-.06.77s0,0,0,0S12.76,9.13,12.75,9.14Zm0,.16s0,0,0,0S12.76,9.29,12.76,9.29Zm0-.63s0,0,0,0S12.74,8.68,12.72,8.67Zm0-.21s.1,0,0,0Zm0-1.28,0,0,0,0,0,0Zm0,.07s0,0,0,0S12.79,7.25,12.78,7.26Zm0-.31,0,0,0,0,0,0Zm0-.22s0,0,0,0S12.78,6.74,12.77,6.73Zm0,1.11s0,0,0,0S12.81,7.83,12.8,7.84Zm0,.17s0,0,0,0S12.79,8,12.79,8Zm0,.24s0,0,0,0S12.78,8.24,12.79,8.25Zm0-.3s0,0,0-.05.09.05,0,.06,0,0,0,0S12.82,7.94,12.81,7.94Zm0,2.81s0,0,0,0S12.82,10.76,12.82,10.76Zm0,0s0,0,0,0S12.84,10.79,12.84,10.78Zm0-.25s0,0,0,0S12.87,10.54,12.87,10.53Zm0-3.05s0,0,0,0l0,0S12.88,7.49,12.9,7.48Zm-.06-1s0,0-.06,0S12.83,6.48,12.84,6.51Zm-.06-.23s0,0,0,0S12.78,6.28,12.78,6.28Zm0-.18s0,0,0,0S12.78,6.09,12.78,6.1Zm0,1.29s0,0,0,0S12.78,7.38,12.77,7.39Zm0,.24s0,0,0,0S12.77,7.62,12.79,7.63Zm0,.64,0,0,0,0,0,0Zm0-1s0,0,0,0S12.69,7.26,12.69,7.27Zm0,1.06s0,0,0,0S12.65,8.32,12.65,8.33Zm0,0s0,0,0,0S12.6,8.36,12.6,8.35Zm0,2.84s0,0,0,0S12.63,11.18,12.63,11.19Zm0,.19c.09,0,0,.1,0,0Zm0-5.09,0,0,0,0,0,0Zm-.07,2.5a0,0,0,0,1,0-.06C12.62,8.77,12.59,8.8,12.55,8.79Zm0,.22s0,0,0,0S12.59,9,12.59,9Zm-.08-.12s0,0,0,0S12.52,8.9,12.51,8.89Zm0,.23s0,0,0,0S12.53,9.11,12.55,9.12Zm0-1.76s0,0,0,0S12.55,7.36,12.55,7.36Zm0-.42s0,0,0,0S12.54,6.95,12.54,6.94Zm0,.19s0,0,0,0S12.52,7.14,12.52,7.13Zm0,.44,0,0,0,0,0,0Zm0,.84s0,0,0,0S12.5,8.42,12.54,8.41Zm0-2.36c0,.06-.08.06,0,0Zm0,.41s0,0,0,.06S12.5,6.5,12.55,6.46Zm0,.15s0,0,0,0S12.55,6.6,12.55,6.61Zm0,.4s0,0,0,0S12.52,7,12.53,7Zm0,2.55s0,0,0,0S12.51,9.55,12.52,9.55Zm0,.09c0,.07,0-.07,0,0Zm0,.44s0,0,0,0S12.49,10.09,12.49,10.09Zm0,.19s0,0-.06,0S12.48,10.3,12.5,10.29Zm-.09-2.18s0,0,0,0S12.41,8.1,12.41,8.11Zm0,2.66s0,0,0,0A0,0,0,0,1,12.42,10.77Zm0,.21s0,0,0,0S12.43,11,12.44,11Zm-.06-2,0,0s0,0,0,0S12.38,8.94,12.38,9Zm0-1.81s0,0,0,0S12.35,7.19,12.35,7.18Zm0,4.2s0,0,0,0S12.39,11.37,12.39,11.38Zm0-2.83s0,0,0,0S12.36,8.56,12.36,8.55Zm0-2.47s0,0,0,0S12.38,6.08,12.38,6.08Zm0,.37,0,0,0,0,0,0Zm0,.28s0,0,0,0S12.34,6.73,12.34,6.73Zm0,1.26s0,0,0,0,0,0,0,0S12.32,8,12.34,8Zm0,.47s0,0,0,0S12.32,8.45,12.34,8.47Zm0-.24s0,0,0,0S12.32,8.23,12.32,8.23Zm0,.44,0,0,0,0,0,0Zm0,.19,0,0,0,0,0,0Zm0,.52s0,.07,0,.07S12.28,9.38,12.32,9.38ZM12.27,7s0,0,0,0S12.25,7,12.27,7Zm0,2.85s0,0,0,0S12.29,9.86,12.29,9.86Zm0-2.61s0,0,0,0A0,0,0,0,1,12.25,7.25Zm0,3.05c-.07,0,.07,0,0,0Zm0,.21s0,0,0,0S12.25,10.5,12.27,10.51Zm0,0s0,0,0,0S12.23,10.52,12.24,10.54Zm0,.18c-.07,0,.07,0,0,0Zm-.07.62s0,0,0,0S12.14,11.34,12.15,11.34Zm0-2.69c.05,0,0,.09,0,0Zm0,.48,0,0,0,0,0,0Zm0,.19s0,0,0,0S12.12,9.31,12.12,9.32Zm0,.29s0,0,0,0S12.08,9.61,12.09,9.61Zm0-.71s0,0,0,0S12.09,8.9,12.09,8.9Zm0,.64s0,0,0,0S12,9.54,12,9.54Zm0,.2s0,0,0,0S12.08,9.75,12.08,9.74Zm0-.06s0,0,0,0S12.08,9.69,12.07,9.68Zm0-.3s0,0,0,0S12.1,9.38,12.09,9.38Zm0-.18c-.08,0,0-.08,0,0ZM12,11.92s0,0,0,0S12,11.93,12,11.92Zm0-.13,0,0,0,0,0,0Zm0,.46c-.05,0,0-.09,0,0Zm0-.66s0,0,0,0S12.16,11.6,12.15,11.59Zm0,0s0,0,0,0S12.18,11.56,12.18,11.56Zm.05-.38s-.07,0,0,0l0,0S12.23,11.17,12.23,11.17Zm0-.23s0,0,0,0S12.28,10.93,12.24,10.95Zm0-.25s0,0,0,0S12.26,10.71,12.24,10.69Zm0-1.07s0,0,0,0S12.29,9.63,12.28,9.62Zm.06,2.43,0,0s0,0,.06,0Zm0-.21s0,0,0,0l0,0s0,0,0,.05S12.34,11.83,12.32,11.84Zm.05-.23c0-.06.09-.05,0,0Zm0-.48a0,0,0,0,1,0,0S12.42,11.15,12.41,11.14Zm0,.49s0,0,0,0S12.45,11.62,12.44,11.62Zm0,.09s0,0,0,0S12.47,11.72,12.47,11.71Zm-.07-1.2s.1,0,.1,0A.07.07,0,0,1,12.4,10.51Zm.09-.1s0,0,0,0S12.49,10.42,12.49,10.41Zm0-.43s0,0,0,0S12.5,10,12.5,10Zm0-.75s0,0,.05,0,0,0,0,0l0,0S12.54,9.22,12.52,9.23Zm0,2.81s0,0,0,0S12.58,12,12.57,12Zm0-.16s0-.05,0-.07l0,.05Zm0-.24s0,0,0,0,0,0,0,0l0,0Zm0-1.08s0,0,0,0S12.64,10.56,12.64,10.55Zm0,.42s0,0,0,0S12.65,11,12.65,11Zm0-.24s0,0,0,0S12.65,10.74,12.66,10.73Zm0,1s0,0,0,0S12.68,11.72,12.68,11.71Zm0-1.21s0,0,0,0S12.68,10.52,12.67,10.5Zm0-.2s0,0,0,0S12.68,10.31,12.67,10.3Zm0-.21s.05,0,.07,0S12.69,10.13,12.67,10.09Zm0-.19c0-.06.07-.06.06,0S12.7,9.89,12.68,9.9Zm0-.15s0,0,0,0S12.72,9.76,12.73,9.75Zm0-.11s0,0,0,0S12.74,9.64,12.72,9.64Zm0-.6,0,0,0,0,0,0Zm0,.29s0,0,0,0S12.77,9.34,12.77,9.33Zm0-.52s0,0,0,0S12.79,8.82,12.79,8.81Zm0,2.59s0,0,0,0S12.83,11.39,12.83,11.4Zm0,.23,0,0,0,0,0,0Zm0-.45s0,0,0,0S12.84,11.19,12.83,11.18Z"/><path class="cls-2" d="M2.41,13.1s-.06,0-.1.06v.08l0,.06,0,0v.15h0a.06.06,0,0,1,0,0v.17l0,0a.28.28,0,0,0,.09-.13s0-.07-.07-.1l.1-.09-.09-.1.09-.13C2.43,13.16,2.46,13.15,2.41,13.1Z"/><path class="cls-2" d="M8.35,13.79a.54.54,0,0,0,0,.09h.09l.06-.06-.09-.1S8.38,13.78,8.35,13.79Z"/><path class="cls-2" d="M7.28,13.89h.08l-.05,0Z"/></svg>